<?xml version="1.0" encoding="utf-8"?>
<!-- Generator: Adobe Illustrator 16.0.0, SVG Export Plug-In . SVG Version: 6.00 Build 0)  -->
<!DOCTYPE svg PUBLIC "-//W3C//DTD SVG 1.0//EN" "http://www.w3.org/TR/2001/REC-SVG-20010904/DTD/svg10.dtd">
<svg version="1.0" xmlns="http://www.w3.org/2000/svg" xmlns:xlink="http://www.w3.org/1999/xlink" x="0px" y="0px" width="51px"
	 height="51px" viewBox="0 0 51 51" enable-background="new 0 0 51 51" xml:space="preserve">
<g id="profile" display="none">
	<g display="inline">
		<path fill="#FFFFFF" d="M42.284,42.308c-11.527,0-23.963,11.699-26.625,4.844c-0.335-0.863-10.928-6.088-10.667-6.963
			C6.892,33.815,15.365,28.995,25.5,28.995c9.661,0,17.812,4.381,20.196,10.311c0.461,1.145-1.744,1.168-2.266,2.293
			C41.784,45.161,41.87,42.313,42.284,42.308z M25.5,30.892c-9.294,0-17.051,4.234-18.689,9.807
			c-0.209,0.711,0.755,1.078,0.755,1.828c0,1.186,2.084,0.822,2.594,1.906c0.457,0.971,4.399,1.17,5.208,2.021
			c1.176,1.236,0.304,0.936,2.083,1.832c2.177,1.098,1.618,0.549,4.417,0.959c1.381,0.201,1.846,0,3.322,0
			c2.055,0,3.156,0.383,5.012,0c1.865-0.385,2.77-0.25,4.332-0.959c2.582-1.17,3.107-1.344,4.5-3.166
			c1.025-1.342,2.922-0.643,3.887-1.525c0.199-0.184,0.969-0.951,0.969-1.225C43.89,35.751,35.981,30.892,25.5,30.892z"/>
	</g>
	<path display="inline" fill="#FFFFFF" d="M25.5,50.63c-13.857,0-25.13-11.273-25.13-25.129C0.37,11.644,11.643,0.37,25.5,0.37
		c13.856,0,25.13,11.273,25.13,25.131C50.63,39.356,39.356,50.63,25.5,50.63z M25.5,3.216c-12.288,0-22.285,9.997-22.285,22.285
		c0,12.287,9.997,22.283,22.285,22.283s22.284-9.996,22.284-22.283C47.784,13.213,37.788,3.216,25.5,3.216z"/>
	<g display="inline">
		<path fill="#FFFFFF" d="M25.5,32.39c-5.821,0-10.557-4.736-10.557-10.556c0-5.822,4.736-10.558,10.557-10.558
			s10.556,4.735,10.556,10.558C36.056,27.653,31.321,32.39,25.5,32.39z M25.5,13.173c-4.775,0-8.66,3.885-8.66,8.661
			c0,4.772,3.885,8.657,8.66,8.657c4.774,0,8.659-3.885,8.659-8.657C34.159,17.058,30.274,13.173,25.5,13.173z"/>
	</g>
	<polygon display="inline" fill="#FFFFFF" points="6.16,38.683 8.785,35.808 17.66,30.62 19.954,29.491 16.66,25.37 16.472,20.433 
		18.41,14.558 26.659,12.37 29.909,13.683 33.722,16.933 35.097,21.433 33.972,26.683 32.021,29.688 35.097,31.995 40.597,34.308 
		44.222,37.575 43.909,40.87 38.784,45.058 32.347,48.245 24.222,49.245 14.66,46.745 9.535,43.433 6.89,40.444 	"/>
</g>
<g id="prev" display="none">
	<path display="inline" d="M25.5,50.63C11.644,50.63,0.37,39.356,0.37,25.501C0.37,11.644,11.644,0.37,25.5,0.37
		s25.129,11.273,25.129,25.131C50.629,39.356,39.355,50.63,25.5,50.63z M25.5,3.216c-12.288,0-22.286,9.997-22.286,22.285
		c0,12.287,9.998,22.283,22.286,22.283s22.284-9.996,22.284-22.283C47.783,13.213,37.787,3.216,25.5,3.216z"/>
	<polygon display="inline" points="13.12,25.912 31.613,10.398 31.613,14.877 18.7,25.799 31.613,35.801 31.613,40.602 	"/>
</g>
<g id="next">
	<path fill="#FFFFFF" d="M0.371,25.501C0.371,11.644,11.644,0.37,25.5,0.37c13.856,0,25.129,11.273,25.129,25.131
		c0,13.855-11.273,25.129-25.129,25.129C11.644,50.63,0.371,39.356,0.371,25.501z M3.216,25.501
		c0,12.287,9.996,22.283,22.284,22.283c12.288,0,22.286-9.996,22.286-22.283c0-12.288-9.998-22.285-22.286-22.285
		C13.212,3.216,3.216,13.213,3.216,25.501z"/>
	<polygon fill="#FFFFFF" points="37.88,25.912 19.387,10.398 19.387,14.877 32.3,25.799 19.387,35.801 19.387,40.602 	"/>
</g>
</svg>
