<svg width="156" height="32" viewBox="0 0 156 32" fill="none" xmlns="http://www.w3.org/2000/svg">
  <rect width="32" height="32" rx="4" fill="#E42575" />
  <path d="M20.5901 12.5558L21.9615 14.1671C22.1185 14.3481 22.2577 14.497 22.3139 14.5816C22.7241 14.9892 22.9541 15.5401 22.9537 16.1141C22.9152 16.7914 22.4739 17.2526 22.0651 17.7459L21.1055 18.8727L20.6049 19.4565C20.5869 19.4766 20.5753 19.5015 20.5716 19.528C20.5678 19.5546 20.572 19.5816 20.5837 19.6058C20.5953 19.6301 20.6139 19.6504 20.6372 19.6643C20.6604 19.6782 20.6873 19.6851 20.7145 19.6842H25.7173C26.4815 19.6842 27.4441 20.3263 27.3878 21.3013C27.3863 21.7444 27.2069 22.169 26.889 22.4823C26.571 22.7957 26.1403 22.9724 25.6906 22.9739H17.8562C17.3408 22.9739 15.9546 23.0294 15.5665 21.8472C15.484 21.6001 15.4727 21.3354 15.534 21.0824C15.6467 20.7083 15.8252 20.3566 16.0612 20.0432C16.4551 19.4594 16.8817 18.8756 17.3023 18.3093C17.8443 17.5678 18.4012 16.8497 18.9491 16.0937C18.9686 16.0691 18.9791 16.0388 18.9791 16.0076C18.9791 15.9764 18.9686 15.9461 18.9491 15.9215L16.9587 13.5862C16.9457 13.5693 16.9289 13.5556 16.9096 13.5461C16.8904 13.5367 16.8691 13.5318 16.8476 13.5318C16.8261 13.5318 16.8048 13.5367 16.7856 13.5461C16.7663 13.5556 16.7495 13.5693 16.7365 13.5862C16.2034 14.2956 13.8693 17.4365 13.3717 18.0728C12.8741 18.7092 11.6478 18.7442 10.9695 18.0728L7.8565 14.9932C7.83662 14.9736 7.81125 14.9602 7.78363 14.9547C7.756 14.9493 7.72736 14.9521 7.70134 14.9627C7.67532 14.9733 7.65309 14.9913 7.63747 15.0145C7.62185 15.0376 7.61355 15.0647 7.61362 15.0925V21.0152C7.62095 21.4355 7.49466 21.8476 7.25244 22.1936C7.01023 22.5396 6.66424 22.8022 6.26296 22.9447C6.00654 23.0327 5.73251 23.0589 5.46371 23.0213C5.1949 22.9837 4.93912 22.8833 4.71768 22.7285C4.49625 22.5737 4.31558 22.3689 4.19073 22.1313C4.06589 21.8937 4.0005 21.6302 4 21.3626V10.7139C4.01785 10.3301 4.15796 9.96169 4.40043 9.6609C4.6429 9.36011 4.97539 9.14228 5.35066 9.03836C5.67257 8.95384 6.01142 8.95469 6.33288 9.04081C6.65434 9.12693 6.94699 9.29526 7.18117 9.52876L11.9677 14.2518C11.9821 14.2661 11.9994 14.2772 12.0186 14.2842C12.0377 14.2912 12.0582 14.294 12.0785 14.2923C12.0989 14.2906 12.1186 14.2846 12.1363 14.2745C12.154 14.2645 12.1693 14.2508 12.181 14.2343L15.5814 9.5959C15.7385 9.4076 15.9355 9.25542 16.1586 9.15004C16.3817 9.04466 16.6254 8.9886 16.8728 8.98581H25.7173C25.9593 8.98621 26.1985 9.03753 26.4188 9.13635C26.6391 9.23516 26.8354 9.3792 26.9947 9.55882C27.154 9.73845 27.2725 9.94951 27.3423 10.1779C27.4122 10.4063 27.4317 10.6468 27.3997 10.8832C27.3373 11.2934 27.1262 11.6673 26.8054 11.9357C26.4845 12.2041 26.0758 12.3487 25.6551 12.3427H20.7026C20.6777 12.3433 20.6535 12.3505 20.6323 12.3635C20.6112 12.3764 20.594 12.3948 20.5825 12.4165C20.571 12.4383 20.5657 12.4627 20.567 12.4872C20.5683 12.5117 20.5763 12.5354 20.5901 12.5558Z" fill="#F5F3F7" />
  <path d="M114.464 13.5933H111.418C111.183 13.5873 110.959 13.4924 110.792 13.3281C110.625 13.1638 110.529 12.9427 110.523 12.7104V12.0041C110.529 11.7719 110.625 11.5508 110.792 11.3865C110.959 11.2222 111.183 11.1272 111.418 11.1213H114.022C114.26 11.1213 114.488 11.0282 114.656 10.8627C114.824 10.6971 114.918 10.4726 114.918 10.2384C114.918 10.0043 114.824 9.77963 114.656 9.61407C114.488 9.44852 114.26 9.35547 114.022 9.35547H111.395C111.159 9.34956 110.935 9.25459 110.768 9.09029C110.601 8.92599 110.505 8.70489 110.499 8.47262V7.76633C110.505 7.53406 110.601 7.3129 110.768 7.1486C110.935 6.9843 111.159 6.88939 111.395 6.88342H114.381C114.619 6.88342 114.846 6.79043 115.014 6.62482C115.182 6.45926 115.277 6.2347 115.277 6.00058C115.277 5.7664 115.182 5.54184 115.014 5.37628C114.846 5.21067 114.619 5.11768 114.381 5.11768H110.797C110.658 5.11487 110.521 5.1605 110.412 5.24656C110.303 5.33256 110.228 5.45356 110.2 5.58854L108.289 14.4762V14.6528C108.322 14.8591 108.433 15.0457 108.599 15.1763C108.764 15.3068 108.973 15.372 109.185 15.3591H114.441C114.678 15.3591 114.906 15.2661 115.074 15.1005C115.242 14.9349 115.336 14.7103 115.336 14.4762C115.336 14.242 115.242 14.0175 115.074 13.8519C114.906 13.6863 114.678 13.5933 114.441 13.5933H114.464Z" fill="white" />
  <path d="M50.2776 5.17651H49.0831C48.9075 5.17872 48.7355 5.22955 48.588 5.32326C48.4398 5.4169 48.3222 5.54961 48.2469 5.70627L45.6191 11.9453C45.6191 11.9609 45.6125 11.9759 45.6018 11.9869C45.5904 11.998 45.5755 12.0041 45.5593 12.0041C45.4996 12.0041 45.4996 12.0041 45.4996 11.9453L42.8718 5.70627C42.8079 5.54704 42.7051 5.40562 42.5731 5.29423C42.3342 5.11769 42.0356 5.35312 41.9759 5.64744L40.005 14.6528C39.9895 14.7547 40.0104 14.8589 40.0647 14.9471C40.1364 15.0894 40.2469 15.209 40.3842 15.2922C40.5216 15.3755 40.6799 15.419 40.8411 15.418H41.1995C41.4312 15.4061 41.6492 15.3087 41.8111 15.145C41.9729 14.9813 42.0655 14.7634 42.0715 14.5351V8.7669C42.0715 8.75131 42.078 8.73632 42.0888 8.72533C42.1001 8.71428 42.115 8.70807 42.1312 8.70807C42.1473 8.70807 42.1622 8.71428 42.1736 8.72533C42.1843 8.73632 42.1909 8.75131 42.1909 8.7669L44.6396 14.8294C44.7047 14.9931 44.8206 15.1325 44.9705 15.2276C45.121 15.3227 45.2978 15.3688 45.4757 15.3591H45.7146C45.8902 15.3569 46.0622 15.306 46.2097 15.2124C46.3579 15.1187 46.4755 14.986 46.5508 14.8294L48.9995 8.82578C48.9995 8.8102 49.006 8.79521 49.0168 8.78416C49.0281 8.77311 49.0431 8.7669 49.0592 8.7669C49.0753 8.7669 49.0902 8.77311 49.1016 8.78416C49.1123 8.79521 49.1189 8.8102 49.1189 8.82578V14.5351C49.1249 14.7673 49.221 14.9885 49.3883 15.1528C49.5549 15.317 49.7789 15.412 50.0148 15.418H50.3731C50.609 15.412 50.833 15.317 50.9996 15.1528C51.1669 14.9885 51.263 14.7673 51.269 14.5351V6.05942C51.2278 5.82404 51.1083 5.60904 50.9286 5.44892C50.7482 5.28886 50.5194 5.19288 50.2776 5.17651Z" fill="white" />
  <path d="M77.6313 9.94413H75.0034C74.7819 9.94413 74.5692 10.0309 74.4122 10.1855C74.2551 10.34 74.1673 10.5496 74.1673 10.7681C74.1673 10.9867 74.2551 11.1962 74.4122 11.3508C74.5692 11.5053 74.7819 11.5922 75.0034 11.5922H75.4812C75.959 11.5922 76.4368 12.0041 76.1979 12.475C75.8396 13.2402 75.1229 13.6522 73.9881 13.6522C72.3158 13.6522 71.3005 12.4162 71.3005 10.2973C71.3005 8.17832 72.3756 6.94233 73.9881 6.94233C74.362 6.92327 74.7347 6.99996 75.0697 7.16504C75.4048 7.33006 75.6903 7.57779 75.8993 7.88406C75.9925 8.05565 76.1298 8.20024 76.2977 8.3035C76.4655 8.40671 76.6572 8.46506 76.8549 8.47264H77.3924C77.513 8.48232 77.6349 8.46285 77.746 8.4159C77.8576 8.36896 77.9556 8.29598 78.032 8.20328C78.1085 8.11053 78.161 8.00088 78.1849 7.8837C78.2088 7.76658 78.2029 7.64546 78.1688 7.53091C77.7961 6.75921 77.2007 6.11306 76.4571 5.67331C75.713 5.23362 74.8547 5.01986 73.9881 5.0588C71.2408 5.0588 69.1505 7.00116 69.1505 10.2973C69.1505 13.5933 71.1213 15.5357 74.0478 15.5357C76.6757 15.5357 78.5272 13.8876 78.5272 11.239V10.827C78.5295 10.7104 78.5081 10.5945 78.4639 10.4863C78.4197 10.3781 78.354 10.2798 78.2703 10.1974C78.1867 10.1149 78.087 10.0499 77.9771 10.0064C77.8672 9.96288 77.7495 9.94168 77.6313 9.94413Z" fill="white" />
  <path d="M62.103 5.76516C62.0415 5.59434 61.9286 5.44623 61.7793 5.34094C61.6294 5.23564 61.4508 5.17825 61.2669 5.17651H59.714C59.5301 5.17825 59.3515 5.23564 59.2016 5.34094C59.0523 5.44623 58.9394 5.59434 58.8779 5.76516L55.8917 14.2408C55.8469 14.3733 55.8343 14.5143 55.8546 14.6525C55.875 14.7907 55.9281 14.9223 56.0093 15.0367C56.0906 15.1511 56.1981 15.2452 56.3229 15.3114C56.4471 15.3776 56.5863 15.4141 56.7278 15.418H57.2056C57.3896 15.4162 57.5681 15.3588 57.718 15.2535C57.8674 15.1483 57.9802 15.0001 58.0418 14.8294L58.4001 13.711C58.4616 13.5402 58.5745 13.3922 58.7238 13.2869C58.8737 13.1816 59.0523 13.1242 59.2362 13.1225H61.6849C61.8689 13.1242 62.0474 13.1816 62.1974 13.2869C62.3467 13.3922 62.4596 13.5402 62.5211 13.711L62.8794 14.8294C62.9409 15.0001 63.0538 15.1483 63.2031 15.2535C63.353 15.3588 63.5316 15.4162 63.7156 15.418H64.1933C64.3349 15.4141 64.474 15.3776 64.5983 15.3114C64.7231 15.2452 64.8306 15.1511 64.9118 15.0367C64.993 14.9223 65.0462 14.7907 65.0665 14.6525C65.0868 14.5143 65.0743 14.3733 65.0295 14.2408L62.103 5.76516ZM60.586 11.3567H60.4068C60.2653 11.3528 60.1261 11.3163 60.0013 11.2502C59.8771 11.1839 59.7696 11.0899 59.6883 10.9754C59.6071 10.861 59.554 10.7294 59.5337 10.5912C59.5134 10.453 59.5259 10.312 59.5707 10.1796L60.4666 7.47201C60.4666 7.45643 60.4731 7.44144 60.4839 7.43039C60.4952 7.4194 60.5101 7.41319 60.5263 7.41319C60.5424 7.41319 60.5573 7.4194 60.5687 7.43039C60.5794 7.44144 60.586 7.45643 60.586 7.47201L61.4819 10.1796C61.5141 10.3161 61.5159 10.4581 61.4866 10.5954C61.458 10.7327 61.3982 10.8621 61.3128 10.9743C61.2274 11.0865 61.1181 11.179 60.9927 11.245C60.8667 11.3111 60.7281 11.3492 60.586 11.3567Z" fill="white" />
  <path d="M84.5591 5.17651H84.141C83.9051 5.18249 83.6812 5.27745 83.5145 5.44175C83.3473 5.60605 83.2512 5.82715 83.2452 6.05942V14.5351C83.2512 14.7673 83.3473 14.9885 83.5145 15.1528C83.6812 15.317 83.9051 15.412 84.141 15.418H84.5591C84.795 15.412 85.019 15.317 85.1856 15.1528C85.3528 14.9885 85.449 14.7673 85.455 14.5351V6.05942C85.4394 5.83026 85.3403 5.61441 85.1755 5.45202C85.0106 5.28963 84.7914 5.19174 84.5591 5.17651Z" fill="white" />
  <path d="M95.011 6.94232C95.4135 6.93139 95.8119 7.02325 96.1678 7.20887C96.5232 7.39449 96.8248 7.66767 97.0416 8.00177C97.1186 8.20674 97.2572 8.38389 97.4382 8.50996C97.6197 8.63598 97.8353 8.70508 98.0569 8.70807H98.475C98.5956 8.71774 98.7175 8.69827 98.8285 8.65133C98.9402 8.60439 99.0382 8.5314 99.1146 8.43871C99.1911 8.34596 99.2436 8.23631 99.2675 8.11913C99.2914 8.00201 99.286 7.88089 99.2514 7.76634C98.6542 6.00059 97.0416 4.99997 94.9512 4.99997C92.2039 4.99997 90.1136 6.88343 90.1136 10.2384C90.1136 13.5933 92.1442 15.4768 94.9512 15.4768C97.161 15.4768 98.6542 14.2996 99.1917 12.8281C99.2263 12.7136 99.2317 12.5925 99.2078 12.4754C99.1839 12.3582 99.1313 12.2485 99.0549 12.1558C98.9785 12.0631 98.8805 11.9901 98.7688 11.9432C98.6577 11.8962 98.5359 11.8767 98.4153 11.8864H97.9375C97.7201 11.9053 97.5116 11.9807 97.3331 12.1047C97.1551 12.2288 97.0129 12.3972 96.9221 12.5927C96.7233 12.9298 96.4342 13.2067 96.0866 13.3934C95.739 13.5802 95.3466 13.6697 94.9512 13.6522C93.3984 13.6522 92.3234 12.475 92.3234 10.2973C92.3234 8.11949 93.3984 6.94232 95.011 6.94232Z" fill="white" />
  <path d="M123.841 5.17657H121.034C120.798 5.18255 120.574 5.27751 120.407 5.44181C120.24 5.60611 120.144 5.82721 120.138 6.05948V14.5351C120.144 14.7674 120.24 14.9885 120.407 15.1529C120.574 15.3171 120.798 15.4121 121.034 15.418H123.841C127.006 15.418 128.918 13.4757 128.918 10.2973C128.918 7.11893 126.947 5.17657 123.841 5.17657ZM123.722 13.5346H123.244C123.008 13.5286 122.784 13.4336 122.617 13.2693C122.45 13.105 122.354 12.8839 122.348 12.6517V7.88411C122.354 7.65185 122.45 7.43069 122.617 7.26639C122.784 7.10208 123.008 7.00718 123.244 7.00121H123.722C125.692 7.00121 126.708 8.00183 126.708 10.2384C126.708 12.4751 125.692 13.5346 123.722 13.5346Z" fill="white" />
  <path d="M139.668 13.5933H136.622C136.386 13.5874 136.162 13.4924 135.995 13.3281C135.828 13.1638 135.732 12.9427 135.726 12.7104V12.0041C135.732 11.7719 135.828 11.5508 135.995 11.3865C136.162 11.2222 136.386 11.1272 136.622 11.1213H139.25C139.488 11.1213 139.715 11.0282 139.884 10.8627C140.051 10.6971 140.146 10.4726 140.146 10.2384C140.146 10.0042 140.051 9.77963 139.884 9.61408C139.715 9.44852 139.488 9.35547 139.25 9.35547H136.622C136.386 9.34956 136.162 9.2546 135.995 9.09029C135.828 8.92599 135.732 8.70489 135.726 8.47263V7.76633C135.732 7.53406 135.828 7.3129 135.995 7.1486C136.162 6.9843 136.386 6.8894 136.622 6.88342H139.608C139.846 6.88342 140.073 6.79043 140.242 6.62482C140.41 6.45926 140.504 6.2347 140.504 6.00058C140.504 5.7664 140.41 5.54184 140.242 5.37628C140.073 5.21067 139.846 5.11768 139.608 5.11768H134.412C134.176 5.12365 133.952 5.21855 133.786 5.38285C133.618 5.54715 133.522 5.76825 133.516 6.00058V14.4762C133.522 14.7085 133.618 14.9296 133.786 15.0939C133.952 15.2582 134.176 15.3531 134.412 15.3591H139.668C139.904 15.3531 140.128 15.2582 140.294 15.0939C140.462 14.9296 140.558 14.7085 140.564 14.4762C140.566 14.3596 140.545 14.2437 140.5 14.1355C140.456 14.0273 140.391 13.929 140.307 13.8466C140.223 13.7641 140.124 13.6992 140.014 13.6556C139.904 13.6121 139.786 13.5909 139.668 13.5933Z" fill="white" />
  <path d="M153.165 5.17657H152.747C152.512 5.18255 152.288 5.27751 152.121 5.44181C151.954 5.60611 151.858 5.82721 151.852 6.05948V11.5333C151.852 11.5922 151.852 11.5922 151.792 11.5922H151.732L147.551 5.58861C147.47 5.47645 147.363 5.38561 147.238 5.32409C147.113 5.26252 146.974 5.23206 146.835 5.23546H146.273C146.037 5.24144 145.813 5.33634 145.647 5.50064C145.48 5.66494 145.383 5.88604 145.377 6.11837V14.594C145.383 14.8263 145.48 15.0474 145.647 15.2117C145.813 15.376 146.037 15.4709 146.273 15.4769H146.691C146.927 15.4709 147.151 15.376 147.318 15.2117C147.485 15.0474 147.581 14.8263 147.587 14.594V9.06128C147.587 9.04569 147.594 9.0307 147.605 9.01965C147.616 9.0086 147.631 9.00239 147.647 9.00239H147.707L151.947 15.006C152.028 15.1182 152.136 15.209 152.261 15.2706C152.385 15.3321 152.524 15.3625 152.664 15.3591H153.201C153.437 15.3532 153.661 15.2583 153.828 15.094C153.995 14.9297 154.091 14.7086 154.097 14.4763V6.00065C154.057 5.78087 153.943 5.58061 153.775 5.43142C153.606 5.28223 153.392 5.19258 153.165 5.17657Z" fill="white" />
  <path d="M42.771 28.108C43.806 28.108 44.49 27.748 45.111 27.181C45.174 27.127 45.228 27.037 45.228 26.929C45.228 26.749 45.066 26.587 44.886 26.587C44.796 26.587 44.715 26.632 44.661 26.686C44.121 27.181 43.572 27.451 42.789 27.451C41.403 27.451 40.35 26.308 40.35 24.85V24.832C40.35 23.383 41.394 22.249 42.789 22.249C43.563 22.249 44.112 22.537 44.598 22.969C44.652 23.005 44.733 23.05 44.832 23.05C45.021 23.05 45.192 22.888 45.192 22.699C45.192 22.573 45.12 22.474 45.048 22.411C44.463 21.925 43.815 21.592 42.798 21.592C40.944 21.592 39.612 23.068 39.612 24.85V24.868C39.612 26.677 40.953 28.108 42.771 28.108ZM46.5085 27.694C46.5085 27.892 46.6615 28.045 46.8595 28.045C47.0575 28.045 47.2015 27.883 47.2015 27.694V26.11C47.2015 24.769 47.9395 24.094 48.8395 23.986C49.0195 23.959 49.1455 23.824 49.1455 23.635C49.1455 23.437 49.0105 23.284 48.8035 23.284C48.2185 23.284 47.5435 23.752 47.2015 24.526V23.653C47.2015 23.455 47.0485 23.302 46.8505 23.302C46.6615 23.302 46.5085 23.464 46.5085 23.653V27.694ZM52.1678 28.108C53.5718 28.108 54.6068 26.992 54.6068 25.678V25.66C54.6068 24.346 53.5808 23.248 52.1858 23.248C50.7818 23.248 49.7558 24.364 49.7558 25.678V25.696C49.7558 27.01 50.7728 28.108 52.1678 28.108ZM52.1858 27.487C51.2048 27.487 50.4668 26.677 50.4668 25.678V25.66C50.4668 24.679 51.1598 23.86 52.1678 23.86C53.1488 23.86 53.8958 24.679 53.8958 25.678V25.696C53.8958 26.677 53.1938 27.487 52.1858 27.487ZM57.4912 28.09C58.4182 28.09 59.1472 27.577 59.1472 26.695V26.677C59.1472 25.84 58.3732 25.561 57.6532 25.345C57.0322 25.156 56.4562 24.985 56.4562 24.544V24.526C56.4562 24.139 56.8072 23.851 57.3562 23.851C57.7522 23.851 58.1752 23.986 58.5712 24.211C58.6072 24.229 58.6612 24.247 58.7242 24.247C58.8952 24.247 59.0302 24.112 59.0302 23.95C59.0302 23.815 58.9492 23.716 58.8592 23.662C58.4092 23.419 57.8692 23.266 57.3742 23.266C56.4562 23.266 55.7902 23.797 55.7902 24.598V24.616C55.7902 25.471 56.6002 25.723 57.3292 25.93C57.9412 26.101 58.4902 26.281 58.4902 26.749V26.767C58.4902 27.217 58.0852 27.505 57.5272 27.505C57.0232 27.505 56.5282 27.334 56.0512 27.01C56.0062 26.974 55.9432 26.956 55.8802 26.956C55.7092 26.956 55.5742 27.091 55.5742 27.253C55.5742 27.37 55.6372 27.46 55.7002 27.505C56.2042 27.865 56.8792 28.09 57.4912 28.09ZM61.9757 28.09C62.9027 28.09 63.6317 27.577 63.6317 26.695V26.677C63.6317 25.84 62.8577 25.561 62.1377 25.345C61.5167 25.156 60.9407 24.985 60.9407 24.544V24.526C60.9407 24.139 61.2917 23.851 61.8407 23.851C62.2367 23.851 62.6597 23.986 63.0557 24.211C63.0917 24.229 63.1457 24.247 63.2087 24.247C63.3797 24.247 63.5147 24.112 63.5147 23.95C63.5147 23.815 63.4337 23.716 63.3437 23.662C62.8937 23.419 62.3537 23.266 61.8587 23.266C60.9407 23.266 60.2747 23.797 60.2747 24.598V24.616C60.2747 25.471 61.0847 25.723 61.8137 25.93C62.4257 26.101 62.9747 26.281 62.9747 26.749V26.767C62.9747 27.217 62.5697 27.505 62.0117 27.505C61.5077 27.505 61.0127 27.334 60.5357 27.01C60.4907 26.974 60.4277 26.956 60.3647 26.956C60.1937 26.956 60.0587 27.091 60.0587 27.253C60.0587 27.37 60.1217 27.46 60.1847 27.505C60.6887 27.865 61.3637 28.09 61.9757 28.09ZM65.1352 25.66H67.0072C67.2052 25.66 67.3672 25.489 67.3672 25.291C67.3672 25.102 67.2052 24.931 67.0072 24.931H65.1352C64.9372 24.931 64.7752 25.102 64.7752 25.291C64.7752 25.489 64.9372 25.66 65.1352 25.66ZM70.87 28.108C71.653 28.108 72.184 27.802 72.625 27.361C72.679 27.307 72.715 27.226 72.715 27.145C72.715 26.983 72.571 26.83 72.4 26.83C72.31 26.83 72.247 26.875 72.202 26.92C71.86 27.244 71.437 27.487 70.906 27.487C69.934 27.487 69.196 26.686 69.196 25.678V25.66C69.196 24.661 69.916 23.86 70.861 23.86C71.419 23.86 71.797 24.112 72.13 24.418C72.184 24.463 72.265 24.499 72.355 24.499C72.535 24.499 72.688 24.355 72.688 24.166C72.688 24.058 72.634 23.968 72.58 23.923C72.166 23.545 71.644 23.248 70.87 23.248C69.511 23.248 68.485 24.364 68.485 25.678V25.696C68.485 27.001 69.511 28.108 70.87 28.108ZM74.0046 27.694C74.0046 27.892 74.1576 28.045 74.3556 28.045C74.5536 28.045 74.6976 27.892 74.6976 27.694V25.336C74.6976 24.463 75.2916 23.878 76.0926 23.878C76.9116 23.878 77.3796 24.418 77.3796 25.282V27.694C77.3796 27.892 77.5326 28.045 77.7306 28.045C77.9196 28.045 78.0726 27.892 78.0726 27.694V25.111C78.0726 24.004 77.4156 23.248 76.2906 23.248C75.4896 23.248 75.0036 23.653 74.6976 24.157V21.736C74.6976 21.547 74.5446 21.385 74.3466 21.385C74.1576 21.385 74.0046 21.547 74.0046 21.736V27.694ZM81.0265 28.099C81.8455 28.099 82.3855 27.721 82.7095 27.298V27.721C82.7095 27.901 82.8445 28.045 83.0425 28.045C83.2315 28.045 83.3755 27.901 83.3755 27.703V25.156C83.3755 24.562 83.2135 24.112 82.8985 23.797C82.5565 23.455 82.0525 23.284 81.3955 23.284C80.8015 23.284 80.3335 23.401 79.8745 23.599C79.7845 23.635 79.6855 23.743 79.6855 23.887C79.6855 24.049 79.8295 24.184 79.9915 24.184C80.0275 24.184 80.0725 24.175 80.1175 24.157C80.4595 24.004 80.8555 23.896 81.3235 23.896C82.1965 23.896 82.7095 24.328 82.7095 25.165V25.327C82.2955 25.21 81.8725 25.129 81.2785 25.129C80.0995 25.129 79.2895 25.651 79.2895 26.632V26.65C79.2895 27.604 80.1625 28.099 81.0265 28.099ZM81.1615 27.55C80.5315 27.55 79.9915 27.208 79.9915 26.623V26.605C79.9915 26.02 80.4775 25.642 81.3505 25.642C81.9175 25.642 82.3765 25.741 82.7185 25.84V26.29C82.7185 27.028 82.0165 27.55 81.1615 27.55ZM84.9424 22.006C84.9424 22.222 85.1224 22.375 85.3474 22.375C85.5814 22.375 85.7614 22.222 85.7614 22.006V21.889C85.7614 21.664 85.5814 21.52 85.3474 21.52C85.1224 21.52 84.9424 21.664 84.9424 21.889V22.006ZM85.0054 27.694C85.0054 27.892 85.1584 28.045 85.3564 28.045C85.5544 28.045 85.6984 27.892 85.6984 27.694V23.653C85.6984 23.455 85.5454 23.302 85.3474 23.302C85.1584 23.302 85.0054 23.464 85.0054 23.653V27.694ZM87.3967 27.694C87.3967 27.892 87.5497 28.045 87.7477 28.045C87.9457 28.045 88.0897 27.892 88.0897 27.694V25.336C88.0897 24.463 88.6837 23.878 89.4847 23.878C90.3037 23.878 90.7717 24.418 90.7717 25.282V27.694C90.7717 27.892 90.9247 28.045 91.1227 28.045C91.3117 28.045 91.4647 27.892 91.4647 27.694V25.111C91.4647 24.004 90.8077 23.248 89.6827 23.248C88.8817 23.248 88.3957 23.653 88.0897 24.157V23.653C88.0897 23.455 87.9367 23.302 87.7387 23.302C87.5497 23.302 87.3967 23.464 87.3967 23.653V27.694ZM95.9378 27.694C95.9378 27.883 96.0908 28.045 96.2798 28.045C96.4778 28.045 96.6308 27.883 96.6308 27.694V22.816L100.537 27.811C100.645 27.937 100.753 28.027 100.906 28.027H100.942C101.131 28.027 101.266 27.883 101.266 27.694V22.006C101.266 21.817 101.113 21.655 100.924 21.655C100.726 21.655 100.573 21.817 100.573 22.006V26.758L96.7478 21.88C96.6488 21.754 96.5498 21.673 96.3878 21.673H96.2888C96.0998 21.673 95.9378 21.835 95.9378 22.024V27.694ZM103.138 27.685C103.138 27.883 103.3 28.045 103.489 28.045C103.687 28.045 103.849 27.883 103.849 27.685V25.255H106.981C107.161 25.255 107.305 25.111 107.305 24.931C107.305 24.751 107.161 24.607 106.981 24.607H103.849V22.357H107.386C107.566 22.357 107.71 22.204 107.71 22.024C107.71 21.844 107.566 21.7 107.386 21.7H103.489C103.3 21.7 103.138 21.862 103.138 22.06V27.685ZM110.799 27.685C110.799 27.883 110.961 28.045 111.159 28.045C111.357 28.045 111.519 27.883 111.519 27.685V22.357H113.346C113.526 22.357 113.679 22.213 113.679 22.033C113.679 21.853 113.526 21.7 113.346 21.7H108.972C108.792 21.7 108.639 21.853 108.639 22.033C108.639 22.213 108.792 22.357 108.972 22.357H110.799V27.685ZM117.732 29.134C117.732 29.332 117.885 29.485 118.083 29.485C118.281 29.485 118.425 29.332 118.425 29.134V27.109C118.785 27.631 119.343 28.099 120.207 28.099C121.332 28.099 122.43 27.199 122.43 25.678V25.66C122.43 24.13 121.323 23.248 120.207 23.248C119.352 23.248 118.803 23.725 118.425 24.283V23.653C118.425 23.455 118.272 23.302 118.074 23.302C117.885 23.302 117.732 23.455 117.732 23.653V29.134ZM120.081 27.478C119.217 27.478 118.398 26.758 118.398 25.678V25.66C118.398 24.598 119.217 23.869 120.081 23.869C120.963 23.869 121.719 24.571 121.719 25.669V25.687C121.719 26.812 120.981 27.478 120.081 27.478ZM123.861 27.694C123.861 27.892 124.014 28.045 124.212 28.045C124.41 28.045 124.554 27.892 124.554 27.694V21.736C124.554 21.547 124.401 21.385 124.203 21.385C124.014 21.385 123.861 21.547 123.861 21.736V27.694ZM127.638 28.099C128.457 28.099 128.997 27.721 129.321 27.298V27.721C129.321 27.901 129.456 28.045 129.654 28.045C129.843 28.045 129.987 27.901 129.987 27.703V25.156C129.987 24.562 129.825 24.112 129.51 23.797C129.168 23.455 128.664 23.284 128.007 23.284C127.413 23.284 126.945 23.401 126.486 23.599C126.396 23.635 126.297 23.743 126.297 23.887C126.297 24.049 126.441 24.184 126.603 24.184C126.639 24.184 126.684 24.175 126.729 24.157C127.071 24.004 127.467 23.896 127.935 23.896C128.808 23.896 129.321 24.328 129.321 25.165V25.327C128.907 25.21 128.484 25.129 127.89 25.129C126.711 25.129 125.901 25.651 125.901 26.632V26.65C125.901 27.604 126.774 28.099 127.638 28.099ZM127.773 27.55C127.143 27.55 126.603 27.208 126.603 26.623V26.605C126.603 26.02 127.089 25.642 127.962 25.642C128.529 25.642 128.988 25.741 129.33 25.84V26.29C129.33 27.028 128.628 27.55 127.773 27.55ZM133.067 28.081C133.337 28.081 133.553 28.036 133.751 27.955C133.868 27.91 133.949 27.811 133.949 27.685C133.949 27.523 133.814 27.388 133.652 27.388C133.598 27.388 133.472 27.451 133.229 27.451C132.761 27.451 132.446 27.244 132.446 26.677V23.959H133.652C133.823 23.959 133.967 23.824 133.967 23.653C133.967 23.491 133.823 23.347 133.652 23.347H132.446V22.249C132.446 22.06 132.284 21.898 132.095 21.898C131.897 21.898 131.753 22.06 131.753 22.249V23.347H131.375C131.213 23.347 131.069 23.482 131.069 23.653C131.069 23.815 131.213 23.959 131.375 23.959H131.753V26.767C131.753 27.712 132.32 28.081 133.067 28.081ZM135.5 27.694C135.5 27.883 135.653 28.045 135.851 28.045C136.049 28.045 136.193 27.883 136.193 27.694V23.959H137.39C137.561 23.959 137.696 23.824 137.696 23.662C137.696 23.491 137.561 23.365 137.39 23.365H136.184V22.987C136.184 22.321 136.454 21.997 136.994 21.997C137.129 21.997 137.255 22.024 137.372 22.042C137.552 22.06 137.705 21.925 137.705 21.745C137.705 21.592 137.588 21.475 137.453 21.448C137.3 21.412 137.129 21.394 136.904 21.394C136.481 21.394 136.139 21.52 135.905 21.754C135.644 22.015 135.5 22.42 135.5 22.951V23.356H135.122C134.96 23.356 134.825 23.491 134.825 23.653C134.825 23.824 134.951 23.959 135.122 23.959H135.5V27.694ZM140.67 28.108C142.074 28.108 143.109 26.992 143.109 25.678V25.66C143.109 24.346 142.083 23.248 140.688 23.248C139.284 23.248 138.258 24.364 138.258 25.678V25.696C138.258 27.01 139.275 28.108 140.67 28.108ZM140.688 27.487C139.707 27.487 138.969 26.677 138.969 25.678V25.66C138.969 24.679 139.662 23.86 140.67 23.86C141.651 23.86 142.398 24.679 142.398 25.678V25.696C142.398 26.677 141.696 27.487 140.688 27.487ZM144.454 27.694C144.454 27.892 144.607 28.045 144.805 28.045C145.003 28.045 145.147 27.883 145.147 27.694V26.11C145.147 24.769 145.885 24.094 146.785 23.986C146.965 23.959 147.091 23.824 147.091 23.635C147.091 23.437 146.956 23.284 146.749 23.284C146.164 23.284 145.489 23.752 145.147 24.526V23.653C145.147 23.455 144.994 23.302 144.796 23.302C144.607 23.302 144.454 23.464 144.454 23.653V27.694ZM148.192 27.694C148.192 27.892 148.345 28.045 148.543 28.045C148.741 28.045 148.885 27.892 148.885 27.694V25.345C148.885 24.49 149.443 23.878 150.181 23.878C150.919 23.878 151.378 24.391 151.378 25.264V27.694C151.378 27.892 151.531 28.045 151.72 28.045C151.918 28.045 152.071 27.892 152.071 27.694V25.318C152.071 24.4 152.647 23.878 153.349 23.878C154.105 23.878 154.555 24.382 154.555 25.282V27.694C154.555 27.892 154.708 28.045 154.906 28.045C155.095 28.045 155.248 27.892 155.248 27.694V25.12C155.248 23.968 154.591 23.248 153.52 23.248C152.71 23.248 152.215 23.662 151.882 24.175C151.63 23.653 151.144 23.248 150.388 23.248C149.605 23.248 149.191 23.671 148.885 24.13V23.653C148.885 23.455 148.732 23.302 148.534 23.302C148.345 23.302 148.192 23.464 148.192 23.653V27.694Z" fill="#E42575" />
  <path d="M45.111 27.181L45.0459 27.105L45.0436 27.1072L45.111 27.181ZM44.661 26.686L44.7286 26.7598L44.7317 26.7567L44.661 26.686ZM44.598 22.969L44.5309 23.0445L44.5425 23.0522L44.598 22.969ZM45.048 22.411L45.1139 22.3357L45.1119 22.3341L45.048 22.411ZM42.771 28.208C43.8354 28.208 44.5426 27.8354 45.1784 27.2548L45.0436 27.1072C44.4374 27.6606 43.7766 28.008 42.771 28.008V28.208ZM45.1761 27.2569C45.2575 27.1871 45.328 27.0708 45.328 26.929H45.128C45.128 27.0032 45.0905 27.0669 45.0459 27.1051L45.1761 27.2569ZM45.328 26.929C45.328 26.6938 45.1212 26.487 44.886 26.487V26.687C45.0108 26.687 45.128 26.8042 45.128 26.929H45.328ZM44.886 26.487C44.7631 26.487 44.658 26.5476 44.5903 26.6153L44.7317 26.7567C44.772 26.7164 44.8289 26.687 44.886 26.687V26.487ZM44.5934 26.6123C44.0682 27.0937 43.5425 27.351 42.789 27.351V27.551C43.6015 27.551 44.1738 27.2683 44.7286 26.7597L44.5934 26.6123ZM42.789 27.351C41.4647 27.351 40.45 26.2594 40.45 24.85H40.25C40.25 26.3566 41.3413 27.551 42.789 27.551V27.351ZM40.45 24.85V24.832H40.25V24.85H40.45ZM40.45 24.832C40.45 23.432 41.4553 22.349 42.789 22.349V22.149C41.3327 22.149 40.25 23.334 40.25 24.832H40.45ZM42.789 22.349C43.533 22.349 44.0593 22.624 44.5316 23.0437L44.6644 22.8943C44.1647 22.45 43.593 22.149 42.789 22.149V22.349ZM44.5425 23.0522C44.6015 23.0915 44.7029 23.15 44.832 23.15V22.95C44.7631 22.95 44.7025 22.9185 44.6535 22.8858L44.5425 23.0522ZM44.832 23.15C45.073 23.15 45.292 22.9465 45.292 22.699H45.092C45.092 22.8295 44.9691 22.95 44.832 22.95V23.15ZM45.292 22.699C45.292 22.5331 45.1976 22.409 45.1139 22.3357L44.9821 22.4863C45.0424 22.539 45.092 22.6129 45.092 22.699H45.292ZM45.1119 22.3341C44.5126 21.8362 43.8426 21.492 42.798 21.492V21.692C43.7874 21.692 44.4134 22.0138 44.9841 22.4879L45.1119 22.3341ZM42.798 21.492C40.8844 21.492 39.512 23.0172 39.512 24.85H39.712C39.712 23.1188 41.0036 21.692 42.798 21.692V21.492ZM39.512 24.85V24.868H39.712V24.85H39.512ZM39.512 24.868C39.512 26.7287 40.8943 28.208 42.771 28.208V28.008C41.0117 28.008 39.712 26.6253 39.712 24.868H39.512ZM48.8395 23.986L48.8515 24.0853L48.8544 24.0849L48.8395 23.986ZM47.2015 24.526H47.1015L47.293 24.5664L47.2015 24.526ZM46.4085 27.694C46.4085 27.9472 46.6063 28.145 46.8595 28.145V27.945C46.7168 27.945 46.6085 27.8368 46.6085 27.694H46.4085ZM46.8595 28.145C47.1178 28.145 47.3015 27.9331 47.3015 27.694H47.1015C47.1015 27.8329 46.9973 27.945 46.8595 27.945V28.145ZM47.3015 27.694V26.11H47.1015V27.694H47.3015ZM47.3015 26.11C47.3015 25.4581 47.4806 24.9786 47.7593 24.6503C48.0379 24.3221 48.4231 24.1367 48.8514 24.0853L48.8276 23.8867C48.356 23.9433 47.9222 24.1494 47.6068 24.5209C47.2914 24.8924 47.1015 25.4209 47.1015 26.11H47.3015ZM48.8544 24.0849C49.0806 24.051 49.2455 23.8762 49.2455 23.635H49.0455C49.0455 23.7718 48.9585 23.867 48.8247 23.8871L48.8544 24.0849ZM49.2455 23.635C49.2455 23.5132 49.2038 23.4 49.1248 23.3165C49.0452 23.2324 48.9329 23.184 48.8035 23.184V23.384C48.8812 23.384 48.9399 23.4121 48.9795 23.454C49.0198 23.4965 49.0455 23.5588 49.0455 23.635H49.2455ZM48.8035 23.184C48.1689 23.184 47.4636 23.6856 47.1101 24.4856L47.293 24.5664C47.6235 23.8184 48.2682 23.384 48.8035 23.384V23.184ZM47.3015 24.526V23.653H47.1015V24.526H47.3015ZM47.3015 23.653C47.3015 23.3998 47.1038 23.202 46.8505 23.202V23.402C46.9933 23.402 47.1015 23.5102 47.1015 23.653H47.3015ZM46.8505 23.202C46.603 23.202 46.4085 23.4122 46.4085 23.653H46.6085C46.6085 23.5158 46.7201 23.402 46.8505 23.402V23.202ZM46.4085 23.653V27.694H46.6085V23.653H46.4085ZM52.1678 28.208C53.629 28.208 54.7068 27.0453 54.7068 25.678H54.5068C54.5068 26.9387 53.5147 28.008 52.1678 28.008V28.208ZM54.7068 25.678V25.66H54.5068V25.678H54.7068ZM54.7068 25.66C54.7068 24.2925 53.6378 23.148 52.1858 23.148V23.348C53.5239 23.348 54.5068 24.3995 54.5068 25.66H54.7068ZM52.1858 23.148C50.7242 23.148 49.6558 24.3112 49.6558 25.678H49.8558C49.8558 24.4168 50.8395 23.348 52.1858 23.348V23.148ZM49.6558 25.678V25.696H49.8558V25.678H49.6558ZM49.6558 25.696C49.6558 27.063 50.7154 28.208 52.1678 28.208V28.008C50.8303 28.008 49.8558 26.957 49.8558 25.696H49.6558ZM52.1858 27.387C51.266 27.387 50.5668 26.6279 50.5668 25.678H50.3668C50.3668 26.7261 51.1437 27.587 52.1858 27.587V27.387ZM50.5668 25.678V25.66H50.3668V25.678H50.5668ZM50.5668 25.66C50.5668 24.7256 51.2233 23.96 52.1678 23.96V23.76C51.0964 23.76 50.3668 24.6324 50.3668 25.66H50.5668ZM52.1678 23.96C53.0877 23.96 53.7958 24.7282 53.7958 25.678H53.9958C53.9958 24.6298 53.21 23.76 52.1678 23.76V23.96ZM53.7958 25.678V25.696H53.9958V25.678H53.7958ZM53.7958 25.696C53.7958 26.629 53.1316 27.387 52.1858 27.387V27.587C53.256 27.587 53.9958 26.725 53.9958 25.696H53.7958ZM57.6532 25.345L57.6241 25.4407L57.6245 25.4408L57.6532 25.345ZM58.5712 24.211L58.5217 24.2981L58.5265 24.3004L58.5712 24.211ZM58.8592 23.662L58.9107 23.5762L58.9067 23.574L58.8592 23.662ZM57.3292 25.93L57.3019 26.0262L57.3023 26.0263L57.3292 25.93ZM56.0512 27.01L55.9885 27.0883L55.995 27.0927L56.0512 27.01ZM55.7002 27.505L55.7583 27.4236L55.7583 27.4236L55.7002 27.505ZM57.4912 28.19C57.9721 28.19 58.4097 28.057 58.7293 27.8013C59.0511 27.5439 59.2472 27.1664 59.2472 26.695H59.0472C59.0472 27.1056 58.8788 27.4256 58.6044 27.6452C58.3277 27.8665 57.9373 27.99 57.4912 27.99V28.19ZM59.2472 26.695V26.677H59.0472V26.695H59.2472ZM59.2472 26.677C59.2472 26.2202 59.0328 25.913 58.7281 25.6966C58.4294 25.4844 58.0407 25.3569 57.6819 25.2492L57.6245 25.4408C57.9857 25.5491 58.344 25.6691 58.6123 25.8597C58.8746 26.046 59.0472 26.2968 59.0472 26.677H59.2472ZM57.6823 25.2493C57.3682 25.1537 57.0804 25.0667 56.8699 24.9513C56.6605 24.8365 56.5562 24.7099 56.5562 24.544H56.3562C56.3562 24.8191 56.54 24.9985 56.7738 25.1267C57.0065 25.2543 57.3173 25.3473 57.6241 25.4407L57.6823 25.2493ZM56.5562 24.544V24.526H56.3562V24.544H56.5562ZM56.5562 24.526C56.5562 24.3656 56.6279 24.2253 56.7613 24.1226C56.8964 24.0187 57.0984 23.951 57.3562 23.951V23.751C57.065 23.751 56.817 23.8273 56.6393 23.9641C56.46 24.1022 56.3562 24.2994 56.3562 24.526H56.5562ZM57.3562 23.951C57.7304 23.951 58.1364 24.079 58.5218 24.2979L58.6206 24.1241C58.214 23.893 57.774 23.751 57.3562 23.751V23.951ZM58.5265 24.3004C58.5734 24.3239 58.6426 24.347 58.7242 24.347V24.147C58.6798 24.147 58.641 24.1341 58.6159 24.1216L58.5265 24.3004ZM58.7242 24.347C58.9485 24.347 59.1302 24.1692 59.1302 23.95H58.9302C58.9302 24.0548 58.8419 24.147 58.7242 24.147V24.347ZM59.1302 23.95C59.1302 23.7709 59.0222 23.6432 58.9107 23.5763L58.8078 23.7477C58.8762 23.7888 58.9302 23.8591 58.9302 23.95H59.1302ZM58.9067 23.574C58.4443 23.3243 57.8881 23.166 57.3742 23.166V23.366C57.8503 23.366 58.3741 23.5137 58.8117 23.75L58.9067 23.574ZM57.3742 23.166C56.8966 23.166 56.4766 23.3042 56.1742 23.5546C55.8702 23.8063 55.6902 24.1674 55.6902 24.598H55.8902C55.8902 24.2276 56.0432 23.9227 56.3017 23.7086C56.5618 23.4933 56.9339 23.366 57.3742 23.366V23.166ZM55.6902 24.598V24.616H55.8902V24.598H55.6902ZM55.6902 24.616C55.6902 25.0834 55.9152 25.3888 56.2309 25.5992C56.5397 25.8051 56.9399 25.9234 57.3019 26.0262L57.3565 25.8338C56.9895 25.7296 56.6202 25.6184 56.3418 25.4328C56.0702 25.2517 55.8902 25.0036 55.8902 24.616H55.6902ZM57.3023 26.0263C57.6103 26.1124 57.8879 26.1971 58.0888 26.3145C58.2862 26.4298 58.3902 26.5645 58.3902 26.749H58.5902C58.5902 26.4655 58.4197 26.2762 58.1896 26.1418C57.963 26.0094 57.6602 25.9186 57.3561 25.8337L57.3023 26.0263ZM58.3902 26.749V26.767H58.5902V26.749H58.3902ZM58.3902 26.767C58.3902 26.9585 58.3054 27.1142 58.158 27.2247C58.0082 27.337 57.7901 27.405 57.5272 27.405V27.605C57.8223 27.605 58.0857 27.529 58.278 27.3847C58.4725 27.2388 58.5902 27.0255 58.5902 26.767H58.3902ZM57.5272 27.405C57.0469 27.405 56.5711 27.2423 56.1074 26.9273L55.995 27.0927C56.4853 27.4257 56.9995 27.605 57.5272 27.605V27.405ZM56.1137 26.9319C56.0469 26.8785 55.9601 26.856 55.8802 26.856V27.056C55.9263 27.056 55.9655 27.0695 55.9887 27.0881L56.1137 26.9319ZM55.8802 26.856C55.6559 26.856 55.4742 27.0338 55.4742 27.253H55.6742C55.6742 27.1482 55.7625 27.056 55.8802 27.056V26.856ZM55.4742 27.253C55.4742 27.4066 55.5565 27.5253 55.6421 27.5864L55.7583 27.4236C55.7179 27.3947 55.6742 27.3334 55.6742 27.253H55.4742ZM55.6421 27.5864C56.1622 27.9579 56.8574 28.19 57.4912 28.19V27.99C56.901 27.99 56.2462 27.7721 55.7583 27.4236L55.6421 27.5864ZM62.1377 25.345L62.1086 25.4407L62.109 25.4408L62.1377 25.345ZM63.0557 24.211L63.0063 24.2981L63.011 24.3004L63.0557 24.211ZM63.3437 23.662L63.3952 23.5762L63.3912 23.574L63.3437 23.662ZM61.8137 25.93L61.7864 26.0262L61.7868 26.0263L61.8137 25.93ZM60.5357 27.01L60.4731 27.0883L60.4795 27.0927L60.5357 27.01ZM60.1847 27.505L60.2429 27.4236L60.2429 27.4236L60.1847 27.505ZM61.9757 28.19C62.4567 28.19 62.8943 28.057 63.2138 27.8013C63.5356 27.5439 63.7317 27.1664 63.7317 26.695H63.5317C63.5317 27.1056 63.3633 27.4256 63.0889 27.6452C62.8122 27.8665 62.4218 27.99 61.9757 27.99V28.19ZM63.7317 26.695V26.677H63.5317V26.695H63.7317ZM63.7317 26.677C63.7317 26.2202 63.5173 25.913 63.2126 25.6966C62.914 25.4844 62.5253 25.3569 62.1665 25.2492L62.109 25.4408C62.4702 25.5491 62.8285 25.6691 63.0968 25.8597C63.3591 26.046 63.5317 26.2968 63.5317 26.677H63.7317ZM62.1669 25.2493C61.8527 25.1537 61.565 25.0667 61.3544 24.9513C61.145 24.8365 61.0407 24.7099 61.0407 24.544H60.8407C60.8407 24.8191 61.0245 24.9985 61.2583 25.1267C61.491 25.2543 61.8018 25.3473 62.1086 25.4407L62.1669 25.2493ZM61.0407 24.544V24.526H60.8407V24.544H61.0407ZM61.0407 24.526C61.0407 24.3656 61.1124 24.2253 61.2459 24.1226C61.3809 24.0187 61.5829 23.951 61.8407 23.951V23.751C61.5496 23.751 61.3016 23.8273 61.1239 23.9641C60.9445 24.1022 60.8407 24.2994 60.8407 24.526H61.0407ZM61.8407 23.951C62.2149 23.951 62.6209 24.079 63.0063 24.2979L63.1051 24.1241C62.6986 23.893 62.2586 23.751 61.8407 23.751V23.951ZM63.011 24.3004C63.0579 24.3239 63.1272 24.347 63.2087 24.347V24.147C63.1643 24.147 63.1256 24.1341 63.1005 24.1216L63.011 24.3004ZM63.2087 24.347C63.433 24.347 63.6147 24.1692 63.6147 23.95H63.4147C63.4147 24.0548 63.3265 24.147 63.2087 24.147V24.347ZM63.6147 23.95C63.6147 23.7709 63.5067 23.6432 63.3952 23.5763L63.2923 23.7477C63.3608 23.7888 63.4147 23.8591 63.4147 23.95H63.6147ZM63.3912 23.574C62.9288 23.3243 62.3726 23.166 61.8587 23.166V23.366C62.3349 23.366 62.8587 23.5137 63.2962 23.75L63.3912 23.574ZM61.8587 23.166C61.3811 23.166 60.9612 23.3042 60.6587 23.5546C60.3547 23.8063 60.1747 24.1674 60.1747 24.598H60.3747C60.3747 24.2276 60.5277 23.9227 60.7863 23.7086C61.0463 23.4933 61.4184 23.366 61.8587 23.366V23.166ZM60.1747 24.598V24.616H60.3747V24.598H60.1747ZM60.1747 24.616C60.1747 25.0834 60.3998 25.3888 60.7154 25.5992C61.0242 25.8051 61.4245 25.9234 61.7864 26.0262L61.8411 25.8338C61.474 25.7296 61.1047 25.6184 60.8263 25.4328C60.5547 25.2517 60.3747 25.0036 60.3747 24.616H60.1747ZM61.7868 26.0263C62.0948 26.1124 62.3725 26.1971 62.5733 26.3145C62.7707 26.4298 62.8747 26.5645 62.8747 26.749H63.0747C63.0747 26.4655 62.9043 26.2762 62.6742 26.1418C62.4475 26.0094 62.1447 25.9186 61.8406 25.8337L61.7868 26.0263ZM62.8747 26.749V26.767H63.0747V26.749H62.8747ZM62.8747 26.767C62.8747 26.9585 62.79 27.1142 62.6425 27.2247C62.4928 27.337 62.2746 27.405 62.0117 27.405V27.605C62.3068 27.605 62.5702 27.529 62.7625 27.3847C62.957 27.2388 63.0747 27.0255 63.0747 26.767H62.8747ZM62.0117 27.405C61.5314 27.405 61.0557 27.2423 60.5919 26.9273L60.4795 27.0927C60.9698 27.4257 61.484 27.605 62.0117 27.605V27.405ZM60.5982 26.9319C60.5314 26.8785 60.4446 26.856 60.3647 26.856V27.056C60.4108 27.056 60.45 27.0695 60.4733 27.0881L60.5982 26.9319ZM60.3647 26.856C60.1405 26.856 59.9587 27.0338 59.9587 27.253H60.1587C60.1587 27.1482 60.247 27.056 60.3647 27.056V26.856ZM59.9587 27.253C59.9587 27.4066 60.041 27.5253 60.1266 27.5864L60.2429 27.4236C60.2024 27.3947 60.1587 27.3334 60.1587 27.253H59.9587ZM60.1266 27.5864C60.6467 27.9579 61.3419 28.19 61.9757 28.19V27.99C61.3856 27.99 60.7307 27.7721 60.2429 27.4236L60.1266 27.5864ZM65.1352 25.76H67.0072V25.56H65.1352V25.76ZM67.0072 25.76C67.2636 25.76 67.4672 25.541 67.4672 25.291H67.2672C67.2672 25.437 67.1468 25.56 67.0072 25.56V25.76ZM67.4672 25.291C67.4672 25.0484 67.262 24.831 67.0072 24.831V25.031C67.1483 25.031 67.2672 25.1556 67.2672 25.291H67.4672ZM67.0072 24.831H65.1352V25.031H67.0072V24.831ZM65.1352 24.831C64.8803 24.831 64.6752 25.0484 64.6752 25.291H64.8752C64.8752 25.1556 64.994 25.031 65.1352 25.031V24.831ZM64.6752 25.291C64.6752 25.541 64.8788 25.76 65.1352 25.76V25.56C64.9956 25.56 64.8752 25.437 64.8752 25.291H64.6752ZM72.625 27.361L72.5543 27.2903L72.5543 27.2903L72.625 27.361ZM72.202 26.92L72.2708 26.9926L72.2727 26.9907L72.202 26.92ZM72.13 24.418L72.0622 24.4917L72.066 24.4948L72.13 24.418ZM72.58 23.923L72.5125 23.9969L72.516 23.9998L72.58 23.923ZM70.87 28.208C71.6849 28.208 72.2401 27.8873 72.6957 27.4317L72.5543 27.2903C72.1279 27.7167 71.6211 28.008 70.87 28.008V28.208ZM72.6957 27.4317C72.7676 27.3598 72.815 27.2537 72.815 27.145H72.615C72.615 27.1983 72.5904 27.2542 72.5543 27.2903L72.6957 27.4317ZM72.815 27.145C72.815 26.9296 72.628 26.73 72.4 26.73V26.93C72.5139 26.93 72.615 27.0364 72.615 27.145H72.815ZM72.4 26.73C72.2725 26.73 72.1855 26.795 72.1313 26.8493L72.2727 26.9907C72.3085 26.955 72.3475 26.93 72.4 26.93V26.73ZM72.1332 26.8474C71.8029 27.1603 71.4033 27.387 70.906 27.387V27.587C71.4707 27.587 71.917 27.3277 72.2708 26.9926L72.1332 26.8474ZM70.906 27.387C69.9952 27.387 69.296 26.6369 69.296 25.678H69.096C69.096 26.7351 69.8728 27.587 70.906 27.587V27.387ZM69.296 25.678V25.66H69.096V25.678H69.296ZM69.296 25.66C69.296 24.7079 69.9792 23.96 70.861 23.96V23.76C69.8528 23.76 69.096 24.6141 69.096 25.66H69.296ZM70.861 23.96C71.383 23.96 71.7378 24.1934 72.0623 24.4916L72.1976 24.3444C71.8562 24.0306 71.4549 23.76 70.861 23.76V23.96ZM72.066 24.4948C72.1359 24.5531 72.2391 24.599 72.355 24.599V24.399C72.2908 24.399 72.232 24.3729 72.194 24.3412L72.066 24.4948ZM72.355 24.599C72.5884 24.599 72.788 24.412 72.788 24.166H72.588C72.588 24.298 72.4815 24.399 72.355 24.399V24.599ZM72.788 24.166C72.788 24.0262 72.7191 23.9088 72.644 23.8462L72.516 23.9998C72.5489 24.0272 72.588 24.0898 72.588 24.166H72.788ZM72.6474 23.8492C72.2195 23.4585 71.6745 23.148 70.87 23.148V23.348C71.6135 23.348 72.1125 23.6315 72.5126 23.9968L72.6474 23.8492ZM70.87 23.148C69.4521 23.148 68.385 24.3125 68.385 25.678H68.585C68.585 24.4155 69.5698 23.348 70.87 23.348V23.148ZM68.385 25.678V25.696H68.585V25.678H68.385ZM68.385 25.696C68.385 27.0533 69.4528 28.208 70.87 28.208V28.008C69.5691 28.008 68.585 26.9487 68.585 25.696H68.385ZM74.6976 24.157H74.5976V24.5144L74.7831 24.2089L74.6976 24.157ZM73.9046 27.694C73.9046 27.9472 74.1024 28.145 74.3556 28.145V27.945C74.2128 27.945 74.1046 27.8368 74.1046 27.694H73.9046ZM74.3556 28.145C74.6122 28.145 74.7976 27.9438 74.7976 27.694H74.5976C74.5976 27.8402 74.495 27.945 74.3556 27.945V28.145ZM74.7976 27.694V25.336H74.5976V27.694H74.7976ZM74.7976 25.336C74.7976 24.9227 74.9378 24.5841 75.1664 24.3494C75.3949 24.1147 75.7172 23.978 76.0926 23.978V23.778C75.667 23.778 75.2918 23.9338 75.0231 24.2099C74.7544 24.4859 74.5976 24.8763 74.5976 25.336H74.7976ZM76.0926 23.978C76.4791 23.978 76.7719 24.1047 76.969 24.323C77.1674 24.5428 77.2796 24.8673 77.2796 25.282H77.4796C77.4796 24.8327 77.3578 24.4552 77.1174 24.189C76.8758 23.9213 76.5251 23.778 76.0926 23.778V23.978ZM77.2796 25.282V27.694H77.4796V25.282H77.2796ZM77.2796 27.694C77.2796 27.9472 77.4774 28.145 77.7306 28.145V27.945C77.5878 27.945 77.4796 27.8368 77.4796 27.694H77.2796ZM77.7306 28.145C77.9765 28.145 78.1726 27.9455 78.1726 27.694H77.9726C77.9726 27.8385 77.8627 27.945 77.7306 27.945V28.145ZM78.1726 27.694V25.111H77.9726V27.694H78.1726ZM78.1726 25.111C78.1726 24.538 78.0023 24.046 77.6766 23.6962C77.3501 23.3456 76.8765 23.148 76.2906 23.148V23.348C76.8297 23.348 77.2471 23.5284 77.5303 23.8325C77.8143 24.1375 77.9726 24.577 77.9726 25.111H78.1726ZM76.2906 23.148C75.4472 23.148 74.932 23.5782 74.6121 24.1051L74.7831 24.2089C75.0752 23.7278 75.532 23.348 76.2906 23.348V23.148ZM74.7976 24.157V21.736H74.5976V24.157H74.7976ZM74.7976 21.736C74.7976 21.4934 74.6015 21.285 74.3466 21.285V21.485C74.4877 21.485 74.5976 21.6006 74.5976 21.736H74.7976ZM74.3466 21.285C74.099 21.285 73.9046 21.4952 73.9046 21.736H74.1046C74.1046 21.5988 74.2162 21.485 74.3466 21.485V21.285ZM73.9046 21.736V27.694H74.1046V21.736H73.9046ZM82.7095 27.298H82.8095V27.003L82.6301 27.2372L82.7095 27.298ZM79.8745 23.599L79.9116 23.6919L79.9141 23.6908L79.8745 23.599ZM80.1175 24.157L80.1547 24.2499L80.1583 24.2483L80.1175 24.157ZM82.7095 25.327L82.6823 25.4232L82.8095 25.4592V25.327H82.7095ZM82.7185 25.84H82.8185V25.7648L82.7463 25.7439L82.7185 25.84ZM81.0265 28.199C81.8808 28.199 82.4487 27.803 82.7889 27.3588L82.6301 27.2372C82.3223 27.639 81.8102 27.999 81.0265 27.999V28.199ZM82.6095 27.298V27.721H82.8095V27.298H82.6095ZM82.6095 27.721C82.6095 27.9562 82.7893 28.145 83.0425 28.145V27.945C82.8997 27.945 82.8095 27.8458 82.8095 27.721H82.6095ZM83.0425 28.145C83.2885 28.145 83.4755 27.9545 83.4755 27.703H83.2755C83.2755 27.8475 83.1745 27.945 83.0425 27.945V28.145ZM83.4755 27.703V25.156H83.2755V27.703H83.4755ZM83.4755 25.156C83.4755 24.5436 83.308 24.0651 82.9692 23.7263L82.8278 23.8677C83.1189 24.1589 83.2755 24.5804 83.2755 25.156H83.4755ZM82.9692 23.7263C82.6024 23.3595 82.069 23.184 81.3955 23.184V23.384C82.0359 23.384 82.5106 23.5505 82.8278 23.8677L82.9692 23.7263ZM81.3955 23.184C80.7865 23.184 80.3051 23.3043 79.8349 23.5072L79.9141 23.6908C80.3619 23.4977 80.8165 23.384 81.3955 23.384V23.184ZM79.8373 23.5062C79.7145 23.5553 79.5855 23.6968 79.5855 23.887H79.7855C79.7855 23.7892 79.8544 23.7147 79.9116 23.6918L79.8373 23.5062ZM79.5855 23.887C79.5855 24.108 79.7781 24.284 79.9915 24.284V24.084C79.8808 24.084 79.7855 23.99 79.7855 23.887H79.5855ZM79.9915 24.284C80.0424 24.284 80.1001 24.2717 80.1546 24.2498L80.0803 24.0642C80.0449 24.0783 80.0125 24.084 79.9915 24.084V24.284ZM80.1583 24.2483C80.4895 24.1001 80.8717 23.996 81.3235 23.996V23.796C80.8393 23.796 80.4294 23.9079 80.0766 24.0657L80.1583 24.2483ZM81.3235 23.996C81.7448 23.996 82.0641 24.1003 82.2771 24.2911C82.4884 24.4803 82.6095 24.7675 82.6095 25.165H82.8095C82.8095 24.7255 82.6741 24.3782 82.4106 24.1421C82.1489 23.9077 81.7752 23.796 81.3235 23.796V23.996ZM82.6095 25.165V25.327H82.8095V25.165H82.6095ZM82.7367 25.2308C82.3154 25.1117 81.8832 25.029 81.2785 25.029V25.229C81.8618 25.229 82.2756 25.3083 82.6823 25.4232L82.7367 25.2308ZM81.2785 25.029C80.676 25.029 80.1557 25.1621 79.7832 25.4316C79.4068 25.7039 79.1895 26.1101 79.1895 26.632H79.3895C79.3895 26.1729 79.5772 25.8276 79.9005 25.5936C80.2277 25.3569 80.702 25.229 81.2785 25.229V25.029ZM79.1895 26.632V26.65H79.3895V26.632H79.1895ZM79.1895 26.65C79.1895 27.1616 79.4252 27.5524 79.7743 27.8124C80.1207 28.0705 80.5769 28.199 81.0265 28.199V27.999C80.612 27.999 80.1998 27.88 79.8937 27.6521C79.5903 27.4261 79.3895 27.0924 79.3895 26.65H79.1895ZM81.1615 27.45C80.8633 27.45 80.593 27.3689 80.3998 27.2256C80.209 27.084 80.0915 26.8809 80.0915 26.623H79.8915C79.8915 26.9501 80.044 27.2105 80.2806 27.3862C80.515 27.5601 80.8297 27.65 81.1615 27.65V27.45ZM80.0915 26.623V26.605H79.8915V26.623H80.0915ZM80.0915 26.605C80.0915 26.3437 80.1983 26.1334 80.4024 25.985C80.6102 25.834 80.9267 25.742 81.3505 25.742V25.542C80.9013 25.542 80.5383 25.639 80.2848 25.8232C80.0277 26.0101 79.8915 26.2813 79.8915 26.605H80.0915ZM81.3505 25.742C81.9055 25.742 82.3549 25.8389 82.6907 25.9361L82.7463 25.7439C82.3981 25.6431 81.9294 25.542 81.3505 25.542V25.742ZM82.6185 25.84V26.29H82.8185V25.84H82.6185ZM82.6185 26.29C82.6185 26.952 81.9847 27.45 81.1615 27.45V27.65C82.0483 27.65 82.8185 27.104 82.8185 26.29H82.6185ZM84.8424 22.006C84.8424 22.2876 85.0782 22.475 85.3474 22.475V22.275C85.1666 22.275 85.0424 22.1564 85.0424 22.006H84.8424ZM85.3474 22.475C85.6241 22.475 85.8614 22.289 85.8614 22.006H85.6614C85.6614 22.155 85.5387 22.275 85.3474 22.275V22.475ZM85.8614 22.006V21.889H85.6614V22.006H85.8614ZM85.8614 21.889C85.8614 21.7478 85.804 21.6278 85.7075 21.5444C85.6123 21.4622 85.4844 21.42 85.3474 21.42V21.62C85.4444 21.62 85.5235 21.6498 85.5768 21.6958C85.6288 21.7407 85.6614 21.8052 85.6614 21.889H85.8614ZM85.3474 21.42C85.0799 21.42 84.8424 21.5968 84.8424 21.889H85.0424C85.0424 21.7312 85.1649 21.62 85.3474 21.62V21.42ZM84.8424 21.889V22.006H85.0424V21.889H84.8424ZM84.9054 27.694C84.9054 27.9472 85.1032 28.145 85.3564 28.145V27.945C85.2136 27.945 85.1054 27.8368 85.1054 27.694H84.9054ZM85.3564 28.145C85.613 28.145 85.7984 27.9438 85.7984 27.694H85.5984C85.5984 27.8402 85.4958 27.945 85.3564 27.945V28.145ZM85.7984 27.694V23.653H85.5984V27.694H85.7984ZM85.7984 23.653C85.7984 23.3998 85.6006 23.202 85.3474 23.202V23.402C85.4902 23.402 85.5984 23.5102 85.5984 23.653H85.7984ZM85.3474 23.202C85.0998 23.202 84.9054 23.4122 84.9054 23.653H85.1054C85.1054 23.5158 85.217 23.402 85.3474 23.402V23.202ZM84.9054 23.653V27.694H85.1054V23.653H84.9054ZM88.0897 24.157H87.9897V24.5144L88.1751 24.2089L88.0897 24.157ZM87.2967 27.694C87.2967 27.9472 87.4944 28.145 87.7477 28.145V27.945C87.6049 27.945 87.4967 27.8368 87.4967 27.694H87.2967ZM87.7477 28.145C88.0043 28.145 88.1897 27.9438 88.1897 27.694H87.9897C87.9897 27.8402 87.887 27.945 87.7477 27.945V28.145ZM88.1897 27.694V25.336H87.9897V27.694H88.1897ZM88.1897 25.336C88.1897 24.9227 88.3299 24.5841 88.5584 24.3494C88.7869 24.1147 89.1092 23.978 89.4847 23.978V23.778C89.0591 23.778 88.6839 23.9338 88.4151 24.2099C88.1464 24.4859 87.9897 24.8763 87.9897 25.336H88.1897ZM89.4847 23.978C89.8712 23.978 90.1639 24.1047 90.3611 24.323C90.5594 24.5428 90.6717 24.8673 90.6717 25.282H90.8717C90.8717 24.8327 90.7499 24.4552 90.5095 24.189C90.2679 23.9213 89.9171 23.778 89.4847 23.778V23.978ZM90.6717 25.282V27.694H90.8717V25.282H90.6717ZM90.6717 27.694C90.6717 27.9472 90.8694 28.145 91.1227 28.145V27.945C90.9799 27.945 90.8717 27.8368 90.8717 27.694H90.6717ZM91.1227 28.145C91.3686 28.145 91.5647 27.9455 91.5647 27.694H91.3647C91.3647 27.8385 91.2547 27.945 91.1227 27.945V28.145ZM91.5647 27.694V25.111H91.3647V27.694H91.5647ZM91.5647 25.111C91.5647 24.538 91.3944 24.046 91.0687 23.6962C90.7421 23.3456 90.2686 23.148 89.6827 23.148V23.348C90.2218 23.348 90.6392 23.5284 90.9224 23.8325C91.2064 24.1375 91.3647 24.577 91.3647 25.111H91.5647ZM89.6827 23.148C88.8393 23.148 88.3241 23.5782 88.0042 24.1051L88.1751 24.2089C88.4672 23.7278 88.9241 23.348 89.6827 23.348V23.148ZM88.1897 24.157V23.653H87.9897V24.157H88.1897ZM88.1897 23.653C88.1897 23.3998 87.9919 23.202 87.7387 23.202V23.402C87.8814 23.402 87.9897 23.5102 87.9897 23.653H88.1897ZM87.7387 23.202C87.4911 23.202 87.2967 23.4122 87.2967 23.653H87.4967C87.4967 23.5158 87.6082 23.402 87.7387 23.402V23.202ZM87.2967 23.653V27.694H87.4967V23.653H87.2967ZM96.6308 22.816L96.7096 22.7544L96.5308 22.5258V22.816H96.6308ZM100.537 27.811L100.458 27.8727L100.461 27.8761L100.537 27.811ZM100.573 26.758L100.494 26.8197L100.673 27.0476V26.758H100.573ZM96.7478 21.88L96.8265 21.8183L96.8264 21.8182L96.7478 21.88ZM95.8378 27.694C95.8378 27.9348 96.0322 28.145 96.2798 28.145V27.945C96.1494 27.945 96.0378 27.8312 96.0378 27.694H95.8378ZM96.2798 28.145C96.5347 28.145 96.7308 27.9366 96.7308 27.694H96.5308C96.5308 27.8294 96.4209 27.945 96.2798 27.945V28.145ZM96.7308 27.694V22.816H96.5308V27.694H96.7308ZM96.552 22.8776L100.458 27.8726L100.616 27.7494L96.7096 22.7544L96.552 22.8776ZM100.461 27.8761C100.573 28.0064 100.706 28.127 100.906 28.127V27.927C100.799 27.927 100.717 27.8676 100.613 27.7459L100.461 27.8761ZM100.906 28.127H100.942V27.927H100.906V28.127ZM100.942 28.127C101.19 28.127 101.366 27.9346 101.366 27.694H101.166C101.166 27.8314 101.072 27.927 100.942 27.927V28.127ZM101.366 27.694V22.006H101.166V27.694H101.366ZM101.366 22.006C101.366 21.7652 101.171 21.555 100.924 21.555V21.755C101.054 21.755 101.166 21.8688 101.166 22.006H101.366ZM100.924 21.555C100.669 21.555 100.473 21.7634 100.473 22.006H100.673C100.673 21.8706 100.783 21.755 100.924 21.755V21.555ZM100.473 22.006V26.758H100.673V22.006H100.473ZM100.651 26.6963L96.8265 21.8183L96.6691 21.9417L100.494 26.8197L100.651 26.6963ZM96.8264 21.8182C96.7194 21.682 96.5947 21.573 96.3878 21.573V21.773C96.5049 21.773 96.5782 21.826 96.6692 21.9418L96.8264 21.8182ZM96.3878 21.573H96.2888V21.773H96.3878V21.573ZM96.2888 21.573C96.0446 21.573 95.8378 21.7798 95.8378 22.024H96.0378C96.0378 21.8902 96.155 21.773 96.2888 21.773V21.573ZM95.8378 22.024V27.694H96.0378V22.024H95.8378ZM103.849 25.255V25.155H103.749V25.255H103.849ZM103.849 24.607H103.749V24.707H103.849V24.607ZM103.849 22.357V22.257H103.749V22.357H103.849ZM103.038 27.685C103.038 27.9366 103.243 28.145 103.489 28.145V27.945C103.357 27.945 103.238 27.8294 103.238 27.685H103.038ZM103.489 28.145C103.742 28.145 103.949 27.9382 103.949 27.685H103.749C103.749 27.8278 103.632 27.945 103.489 27.945V28.145ZM103.949 27.685V25.255H103.749V27.685H103.949ZM103.849 25.355H106.981V25.155H103.849V25.355ZM106.981 25.355C107.216 25.355 107.405 25.1662 107.405 24.931H107.205C107.205 25.0558 107.106 25.155 106.981 25.155V25.355ZM107.405 24.931C107.405 24.6958 107.216 24.507 106.981 24.507V24.707C107.106 24.707 107.205 24.8062 107.205 24.931H107.405ZM106.981 24.507H103.849V24.707H106.981V24.507ZM103.949 24.607V22.357H103.749V24.607H103.949ZM103.849 22.457H107.386V22.257H103.849V22.457ZM107.386 22.457C107.625 22.457 107.81 22.2556 107.81 22.024H107.61C107.61 22.1524 107.507 22.257 107.386 22.257V22.457ZM107.81 22.024C107.81 21.7888 107.621 21.6 107.386 21.6V21.8C107.511 21.8 107.61 21.8992 107.61 22.024H107.81ZM107.386 21.6H103.489V21.8H107.386V21.6ZM103.489 21.6C103.243 21.6 103.038 21.8084 103.038 22.06H103.238C103.238 21.9156 103.357 21.8 103.489 21.8V21.6ZM103.038 22.06V27.685H103.238V22.06H103.038ZM111.519 22.357V22.257H111.419V22.357H111.519ZM110.799 22.357H110.899V22.257H110.799V22.357ZM110.699 27.685C110.699 27.9382 110.906 28.145 111.159 28.145V27.945C111.017 27.945 110.899 27.8278 110.899 27.685H110.699ZM111.159 28.145C111.413 28.145 111.619 27.9382 111.619 27.685H111.419C111.419 27.8278 111.302 27.945 111.159 27.945V28.145ZM111.619 27.685V22.357H111.419V27.685H111.619ZM111.519 22.457H113.346V22.257H111.519V22.457ZM113.346 22.457C113.578 22.457 113.779 22.2718 113.779 22.033H113.579C113.579 22.1542 113.475 22.257 113.346 22.257V22.457ZM113.779 22.033C113.779 21.7978 113.582 21.6 113.346 21.6V21.8C113.471 21.8 113.579 21.9082 113.579 22.033H113.779ZM113.346 21.6H108.972V21.8H113.346V21.6ZM108.972 21.6C108.737 21.6 108.539 21.7978 108.539 22.033H108.739C108.739 21.9082 108.848 21.8 108.972 21.8V21.6ZM108.539 22.033C108.539 22.2718 108.741 22.457 108.972 22.457V22.257C108.844 22.257 108.739 22.1542 108.739 22.033H108.539ZM108.972 22.457H110.799V22.257H108.972V22.457ZM110.699 22.357V27.685H110.899V22.357H110.699ZM118.425 27.109L118.507 27.0522L118.325 26.7879V27.109H118.425ZM118.425 24.283H118.325V24.6089L118.507 24.3391L118.425 24.283ZM117.632 29.134C117.632 29.3872 117.829 29.585 118.083 29.585V29.385C117.94 29.385 117.832 29.2768 117.832 29.134H117.632ZM118.083 29.585C118.339 29.585 118.525 29.3838 118.525 29.134H118.325C118.325 29.2802 118.222 29.385 118.083 29.385V29.585ZM118.525 29.134V27.109H118.325V29.134H118.525ZM118.342 27.1658C118.714 27.7051 119.299 28.199 120.207 28.199V27.999C119.386 27.999 118.855 27.5569 118.507 27.0522L118.342 27.1658ZM120.207 28.199C121.387 28.199 122.53 27.2542 122.53 25.678H122.33C122.33 27.1438 121.276 27.999 120.207 27.999V28.199ZM122.53 25.678V25.66H122.33V25.678H122.53ZM122.53 25.66C122.53 24.0737 121.377 23.148 120.207 23.148V23.348C121.268 23.348 122.33 24.1863 122.33 25.66H122.53ZM120.207 23.148C119.306 23.148 118.73 23.6533 118.342 24.2269L118.507 24.3391C118.875 23.7967 119.397 23.348 120.207 23.348V23.148ZM118.525 24.283V23.653H118.325V24.283H118.525ZM118.525 23.653C118.525 23.3998 118.327 23.202 118.074 23.202V23.402C118.216 23.402 118.325 23.5102 118.325 23.653H118.525ZM118.074 23.202C117.828 23.202 117.632 23.4015 117.632 23.653H117.832C117.832 23.5085 117.942 23.402 118.074 23.402V23.202ZM117.632 23.653V29.134H117.832V23.653H117.632ZM120.081 27.378C119.272 27.378 118.498 26.7034 118.498 25.678H118.298C118.298 26.8126 119.161 27.578 120.081 27.578V27.378ZM118.498 25.678V25.66H118.298V25.678H118.498ZM118.498 25.66C118.498 24.6526 119.272 23.969 120.081 23.969V23.769C119.161 23.769 118.298 24.5434 118.298 25.66H118.498ZM120.081 23.969C120.903 23.969 121.619 24.622 121.619 25.669H121.819C121.819 24.52 121.022 23.769 120.081 23.769V23.969ZM121.619 25.669V25.687H121.819V25.669H121.619ZM121.619 25.687C121.619 26.227 121.442 26.6487 121.165 26.9349C120.888 27.2212 120.505 27.378 120.081 27.378V27.578C120.556 27.578 120.992 27.4018 121.309 27.0739C121.626 26.7458 121.819 26.272 121.819 25.687H121.619ZM123.761 27.694C123.761 27.9472 123.959 28.145 124.212 28.145V27.945C124.069 27.945 123.961 27.8368 123.961 27.694H123.761ZM124.212 28.145C124.469 28.145 124.654 27.9438 124.654 27.694H124.454C124.454 27.8402 124.352 27.945 124.212 27.945V28.145ZM124.654 27.694V21.736H124.454V27.694H124.654ZM124.654 21.736C124.654 21.4934 124.458 21.285 124.203 21.285V21.485C124.344 21.485 124.454 21.6006 124.454 21.736H124.654ZM124.203 21.285C123.956 21.285 123.761 21.4952 123.761 21.736H123.961C123.961 21.5988 124.073 21.485 124.203 21.485V21.285ZM123.761 21.736V27.694H123.961V21.736H123.761ZM129.321 27.298H129.421V27.003L129.242 27.2372L129.321 27.298ZM126.486 23.599L126.524 23.6919L126.526 23.6908L126.486 23.599ZM126.729 24.157L126.767 24.2499L126.77 24.2483L126.729 24.157ZM129.321 25.327L129.294 25.4232L129.421 25.4592V25.327H129.321ZM129.33 25.84H129.43V25.7648L129.358 25.7439L129.33 25.84ZM127.638 28.199C128.493 28.199 129.061 27.803 129.401 27.3588L129.242 27.2372C128.934 27.639 128.422 27.999 127.638 27.999V28.199ZM129.221 27.298V27.721H129.421V27.298H129.221ZM129.221 27.721C129.221 27.9562 129.401 28.145 129.654 28.145V27.945C129.512 27.945 129.421 27.8458 129.421 27.721H129.221ZM129.654 28.145C129.9 28.145 130.087 27.9545 130.087 27.703H129.887C129.887 27.8475 129.786 27.945 129.654 27.945V28.145ZM130.087 27.703V25.156H129.887V27.703H130.087ZM130.087 25.156C130.087 24.5436 129.92 24.0651 129.581 23.7263L129.44 23.8677C129.731 24.1589 129.887 24.5804 129.887 25.156H130.087ZM129.581 23.7263C129.214 23.3595 128.681 23.184 128.007 23.184V23.384C128.648 23.384 129.122 23.5505 129.44 23.8677L129.581 23.7263ZM128.007 23.184C127.398 23.184 126.917 23.3043 126.447 23.5072L126.526 23.6908C126.974 23.4977 127.428 23.384 128.007 23.384V23.184ZM126.449 23.5062C126.326 23.5553 126.197 23.6968 126.197 23.887H126.397C126.397 23.7892 126.466 23.7147 126.524 23.6918L126.449 23.5062ZM126.197 23.887C126.197 24.108 126.39 24.284 126.603 24.284V24.084C126.493 24.084 126.397 23.99 126.397 23.887H126.197ZM126.603 24.284C126.654 24.284 126.712 24.2717 126.767 24.2498L126.692 24.0642C126.657 24.0783 126.624 24.084 126.603 24.084V24.284ZM126.77 24.2483C127.101 24.1001 127.484 23.996 127.935 23.996V23.796C127.451 23.796 127.041 23.9079 126.689 24.0657L126.77 24.2483ZM127.935 23.996C128.357 23.996 128.676 24.1003 128.889 24.2911C129.1 24.4803 129.221 24.7675 129.221 25.165H129.421C129.421 24.7255 129.286 24.3782 129.022 24.1421C128.761 23.9077 128.387 23.796 127.935 23.796V23.996ZM129.221 25.165V25.327H129.421V25.165H129.221ZM129.349 25.2308C128.927 25.1117 128.495 25.029 127.89 25.029V25.229C128.474 25.229 128.887 25.3083 129.294 25.4232L129.349 25.2308ZM127.89 25.029C127.288 25.029 126.768 25.1621 126.395 25.4316C126.019 25.7039 125.801 26.1101 125.801 26.632H126.001C126.001 26.1729 126.189 25.8276 126.512 25.5936C126.84 25.3569 127.314 25.229 127.89 25.229V25.029ZM125.801 26.632V26.65H126.001V26.632H125.801ZM125.801 26.65C125.801 27.1616 126.037 27.5524 126.386 27.8124C126.733 28.0705 127.189 28.199 127.638 28.199V27.999C127.224 27.999 126.812 27.88 126.506 27.6521C126.202 27.4261 126.001 27.0924 126.001 26.65H125.801ZM127.773 27.45C127.475 27.45 127.205 27.3689 127.012 27.2256C126.821 27.084 126.703 26.8809 126.703 26.623H126.503C126.503 26.9501 126.656 27.2105 126.893 27.3862C127.127 27.5601 127.442 27.65 127.773 27.65V27.45ZM126.703 26.623V26.605H126.503V26.623H126.703ZM126.703 26.605C126.703 26.3437 126.81 26.1334 127.014 25.985C127.222 25.834 127.539 25.742 127.962 25.742V25.542C127.513 25.542 127.15 25.639 126.897 25.8232C126.64 26.0101 126.503 26.2813 126.503 26.605H126.703ZM127.962 25.742C128.517 25.742 128.967 25.8389 129.303 25.9361L129.358 25.7439C129.01 25.6431 128.541 25.542 127.962 25.542V25.742ZM129.23 25.84V26.29H129.43V25.84H129.23ZM129.23 26.29C129.23 26.952 128.597 27.45 127.773 27.45V27.65C128.66 27.65 129.43 27.104 129.43 26.29H129.23ZM133.751 27.955L133.715 27.8616L133.714 27.8624L133.751 27.955ZM132.446 23.959V23.859H132.346V23.959H132.446ZM132.446 23.347H132.346V23.447H132.446V23.347ZM131.753 23.347V23.447H131.853V23.347H131.753ZM131.753 23.959H131.853V23.859H131.753V23.959ZM133.067 28.181C133.349 28.181 133.578 28.1338 133.789 28.0476L133.714 27.8624C133.528 27.9382 133.325 27.981 133.067 27.981V28.181ZM133.787 28.0483C133.936 27.9912 134.049 27.8595 134.049 27.685H133.849C133.849 27.7625 133.801 27.8288 133.715 27.8617L133.787 28.0483ZM134.049 27.685C134.049 27.4678 133.87 27.288 133.652 27.288V27.488C133.759 27.488 133.849 27.5782 133.849 27.685H134.049ZM133.652 27.288C133.624 27.288 133.594 27.2956 133.573 27.3009C133.547 27.3075 133.522 27.3145 133.489 27.322C133.426 27.3365 133.342 27.351 133.229 27.351V27.551C133.36 27.551 133.46 27.534 133.534 27.517C133.57 27.5088 133.602 27.5 133.622 27.4948C133.648 27.4883 133.653 27.488 133.652 27.488V27.288ZM133.229 27.351C133.008 27.351 132.841 27.3018 132.729 27.2021C132.62 27.1043 132.546 26.9422 132.546 26.677H132.346C132.346 26.9788 132.431 27.2037 132.596 27.3512C132.759 27.4967 132.983 27.551 133.229 27.551V27.351ZM132.546 26.677V23.959H132.346V26.677H132.546ZM132.446 24.059H133.652V23.859H132.446V24.059ZM133.652 24.059C133.875 24.059 134.067 23.883 134.067 23.653H133.867C133.867 23.765 133.772 23.859 133.652 23.859V24.059ZM134.067 23.653C134.067 23.4339 133.877 23.247 133.652 23.247V23.447C133.77 23.447 133.867 23.5481 133.867 23.653H134.067ZM133.652 23.247H132.446V23.447H133.652V23.247ZM132.546 23.347V22.249H132.346V23.347H132.546ZM132.546 22.249C132.546 22.0048 132.34 21.798 132.095 21.798V21.998C132.229 21.998 132.346 22.1152 132.346 22.249H132.546ZM132.095 21.798C131.837 21.798 131.653 22.0099 131.653 22.249H131.853C131.853 22.1101 131.958 21.998 132.095 21.998V21.798ZM131.653 22.249V23.347H131.853V22.249H131.653ZM131.753 23.247H131.375V23.447H131.753V23.247ZM131.375 23.247C131.16 23.247 130.969 23.4249 130.969 23.653H131.169C131.169 23.5391 131.267 23.447 131.375 23.447V23.247ZM130.969 23.653C130.969 23.8702 131.158 24.059 131.375 24.059V23.859C131.269 23.859 131.169 23.7598 131.169 23.653H130.969ZM131.375 24.059H131.753V23.859H131.375V24.059ZM131.653 23.959V26.767H131.853V23.959H131.653ZM131.653 26.767C131.653 27.2601 131.802 27.6189 132.064 27.8529C132.323 28.0851 132.679 28.181 133.067 28.181V27.981C132.709 27.981 132.408 27.8924 132.197 27.7039C131.988 27.5171 131.853 27.2189 131.853 26.767H131.653ZM136.193 23.959V23.859H136.093V23.959H136.193ZM136.184 23.365H136.084V23.465H136.184V23.365ZM137.372 22.042L137.357 22.141L137.362 22.1415L137.372 22.042ZM137.453 21.448L137.43 21.5454L137.433 21.5461L137.453 21.448ZM135.905 21.754L135.976 21.8247L135.976 21.8247L135.905 21.754ZM135.5 23.356V23.456H135.6V23.356H135.5ZM135.5 23.959H135.6V23.859H135.5V23.959ZM135.4 27.694C135.4 27.9366 135.596 28.145 135.851 28.145V27.945C135.71 27.945 135.6 27.8294 135.6 27.694H135.4ZM135.851 28.145C136.109 28.145 136.293 27.9331 136.293 27.694H136.093C136.093 27.8329 135.989 27.945 135.851 27.945V28.145ZM136.293 27.694V23.959H136.093V27.694H136.293ZM136.193 24.059H137.39V23.859H136.193V24.059ZM137.39 24.059C137.614 24.059 137.796 23.8812 137.796 23.662H137.596C137.596 23.7668 137.508 23.859 137.39 23.859V24.059ZM137.796 23.662C137.796 23.4319 137.612 23.265 137.39 23.265V23.465C137.51 23.465 137.596 23.5501 137.596 23.662H137.796ZM137.39 23.265H136.184V23.465H137.39V23.265ZM136.284 23.365V22.987H136.084V23.365H136.284ZM136.284 22.987C136.284 22.6649 136.35 22.4445 136.464 22.3057C136.575 22.1709 136.745 22.097 136.994 22.097V21.897C136.703 21.897 136.468 21.9851 136.309 22.1788C136.153 22.3685 136.084 22.6431 136.084 22.987H136.284ZM136.994 22.097C137.119 22.097 137.232 22.1217 137.357 22.1408L137.387 21.9432C137.278 21.9263 137.139 21.897 136.994 21.897V22.097ZM137.362 22.1415C137.599 22.1652 137.805 21.9859 137.805 21.745H137.605C137.605 21.8641 137.505 21.9548 137.382 21.9425L137.362 22.1415ZM137.805 21.745C137.805 21.5374 137.647 21.3849 137.473 21.3499L137.433 21.5461C137.529 21.5651 137.605 21.6466 137.605 21.745H137.805ZM137.476 21.3507C137.314 21.3124 137.134 21.294 136.904 21.294V21.494C137.124 21.494 137.287 21.5116 137.43 21.5453L137.476 21.3507ZM136.904 21.294C136.461 21.294 136.091 21.4262 135.834 21.6833L135.976 21.8247C136.187 21.6138 136.501 21.494 136.904 21.494V21.294ZM135.834 21.6833C135.549 21.9689 135.4 22.4032 135.4 22.951H135.6C135.6 22.4368 135.739 22.0611 135.976 21.8247L135.834 21.6833ZM135.4 22.951V23.356H135.6V22.951H135.4ZM135.5 23.256H135.122V23.456H135.5V23.256ZM135.122 23.256C134.905 23.256 134.725 23.4358 134.725 23.653H134.925C134.925 23.5462 135.015 23.456 135.122 23.456V23.256ZM134.725 23.653C134.725 23.8753 134.892 24.059 135.122 24.059V23.859C135.01 23.859 134.925 23.7727 134.925 23.653H134.725ZM135.122 24.059H135.5V23.859H135.122V24.059ZM135.4 23.959V27.694H135.6V23.959H135.4ZM140.67 28.208C142.131 28.208 143.209 27.0453 143.209 25.678H143.009C143.009 26.9387 142.017 28.008 140.67 28.008V28.208ZM143.209 25.678V25.66H143.009V25.678H143.209ZM143.209 25.66C143.209 24.2925 142.14 23.148 140.688 23.148V23.348C142.026 23.348 143.009 24.3995 143.009 25.66H143.209ZM140.688 23.148C139.226 23.148 138.158 24.3112 138.158 25.678H138.358C138.358 24.4168 139.341 23.348 140.688 23.348V23.148ZM138.158 25.678V25.696H138.358V25.678H138.158ZM138.158 25.696C138.158 27.063 139.217 28.208 140.67 28.208V28.008C139.332 28.008 138.358 26.957 138.358 25.696H138.158ZM140.688 27.387C139.768 27.387 139.069 26.6279 139.069 25.678H138.869C138.869 26.7261 139.646 27.587 140.688 27.587V27.387ZM139.069 25.678V25.66H138.869V25.678H139.069ZM139.069 25.66C139.069 24.7256 139.725 23.96 140.67 23.96V23.76C139.598 23.76 138.869 24.6324 138.869 25.66H139.069ZM140.67 23.96C141.59 23.96 142.298 24.7282 142.298 25.678H142.498C142.498 24.6298 141.712 23.76 140.67 23.76V23.96ZM142.298 25.678V25.696H142.498V25.678H142.298ZM142.298 25.696C142.298 26.629 141.634 27.387 140.688 27.387V27.587C141.758 27.587 142.498 26.725 142.498 25.696H142.298ZM146.785 23.986L146.797 24.0853L146.8 24.0849L146.785 23.986ZM145.147 24.526H145.047L145.239 24.5664L145.147 24.526ZM144.354 27.694C144.354 27.9472 144.552 28.145 144.805 28.145V27.945C144.662 27.945 144.554 27.8368 144.554 27.694H144.354ZM144.805 28.145C145.063 28.145 145.247 27.9331 145.247 27.694H145.047C145.047 27.8329 144.943 27.945 144.805 27.945V28.145ZM145.247 27.694V26.11H145.047V27.694H145.247ZM145.247 26.11C145.247 25.4581 145.426 24.9786 145.705 24.6503C145.984 24.3221 146.369 24.1367 146.797 24.0853L146.773 23.8867C146.302 23.9433 145.868 24.1494 145.552 24.5209C145.237 24.8924 145.047 25.4209 145.047 26.11H145.247ZM146.8 24.0849C147.026 24.051 147.191 23.8762 147.191 23.635H146.991C146.991 23.7718 146.904 23.867 146.77 23.8871L146.8 24.0849ZM147.191 23.635C147.191 23.5132 147.149 23.4 147.07 23.3165C146.991 23.2324 146.879 23.184 146.749 23.184V23.384C146.827 23.384 146.886 23.4121 146.925 23.454C146.965 23.4965 146.991 23.5588 146.991 23.635H147.191ZM146.749 23.184C146.115 23.184 145.409 23.6856 145.056 24.4856L145.239 24.5664C145.569 23.8184 146.214 23.384 146.749 23.384V23.184ZM145.247 24.526V23.653H145.047V24.526H145.247ZM145.247 23.653C145.247 23.3998 145.049 23.202 144.796 23.202V23.402C144.939 23.402 145.047 23.5102 145.047 23.653H145.247ZM144.796 23.202C144.549 23.202 144.354 23.4122 144.354 23.653H144.554C144.554 23.5158 144.666 23.402 144.796 23.402V23.202ZM144.354 23.653V27.694H144.554V23.653H144.354ZM151.882 24.175L151.792 24.2185L151.869 24.3784L151.966 24.2294L151.882 24.175ZM148.885 24.13H148.785V24.4603L148.968 24.1855L148.885 24.13ZM148.092 27.694C148.092 27.9472 148.289 28.145 148.543 28.145V27.945C148.4 27.945 148.292 27.8368 148.292 27.694H148.092ZM148.543 28.145C148.799 28.145 148.985 27.9438 148.985 27.694H148.785C148.785 27.8402 148.682 27.945 148.543 27.945V28.145ZM148.985 27.694V25.345H148.785V27.694H148.985ZM148.985 25.345C148.985 24.5342 149.508 23.978 150.181 23.978V23.778C149.377 23.778 148.785 24.4458 148.785 25.345H148.985ZM150.181 23.978C150.525 23.978 150.795 24.0968 150.981 24.3093C151.167 24.5236 151.278 24.8442 151.278 25.264H151.478C151.478 24.8108 151.358 24.4384 151.131 24.1779C150.903 23.9157 150.574 23.778 150.181 23.778V23.978ZM151.278 25.264V27.694H151.478V25.264H151.278ZM151.278 27.694C151.278 27.9455 151.474 28.145 151.72 28.145V27.945C151.588 27.945 151.478 27.8385 151.478 27.694H151.278ZM151.72 28.145C151.973 28.145 152.171 27.9472 152.171 27.694H151.971C151.971 27.8368 151.862 27.945 151.72 27.945V28.145ZM152.171 27.694V25.318H151.971V27.694H152.171ZM152.171 25.318C152.171 24.8803 152.308 24.5462 152.519 24.3224C152.731 24.0986 153.023 23.978 153.349 23.978V23.778C152.972 23.778 152.626 23.9184 152.374 24.1851C152.122 24.4518 151.971 24.8377 151.971 25.318H152.171ZM153.349 23.978C153.703 23.978 153.975 24.0953 154.16 24.308C154.346 24.5228 154.455 24.8475 154.455 25.282H154.655C154.655 24.8165 154.538 24.4392 154.311 24.177C154.081 23.9127 153.75 23.778 153.349 23.778V23.978ZM154.455 25.282V27.694H154.655V25.282H154.455ZM154.455 27.694C154.455 27.9472 154.652 28.145 154.906 28.145V27.945C154.763 27.945 154.655 27.8368 154.655 27.694H154.455ZM154.906 28.145C155.152 28.145 155.348 27.9455 155.348 27.694H155.148C155.148 27.8385 155.038 27.945 154.906 27.945V28.145ZM155.348 27.694V25.12H155.148V27.694H155.348ZM155.348 25.12C155.348 24.5254 155.178 24.031 154.859 23.6843C154.539 23.3366 154.079 23.148 153.52 23.148V23.348C154.032 23.348 154.435 23.5194 154.712 23.8197C154.989 24.121 155.148 24.5626 155.148 25.12H155.348ZM153.52 23.148C152.667 23.148 152.144 23.5877 151.798 24.1206L151.966 24.2294C152.286 23.7363 152.753 23.348 153.52 23.348V23.148ZM151.972 24.1315C151.705 23.5796 151.187 23.148 150.388 23.148V23.348C151.1 23.348 151.554 23.7264 151.792 24.2185L151.972 24.1315ZM150.388 23.148C149.977 23.148 149.658 23.2595 149.401 23.4342C149.146 23.6077 148.958 23.8402 148.801 24.0745L148.968 24.1855C149.118 23.9608 149.289 23.7523 149.514 23.5995C149.736 23.448 150.016 23.348 150.388 23.348V23.148ZM148.985 24.13V23.653H148.785V24.13H148.985ZM148.985 23.653C148.985 23.3998 148.787 23.202 148.534 23.202V23.402C148.676 23.402 148.785 23.5102 148.785 23.653H148.985ZM148.534 23.202C148.286 23.202 148.092 23.4122 148.092 23.653H148.292C148.292 23.5158 148.403 23.402 148.534 23.402V23.202ZM148.092 23.653V27.694H148.292V23.653H148.092Z" fill="#E42575" />
</svg>
