<?xml version="1.0" encoding="utf-8"?>
<!-- Generator: Adobe Illustrator 16.0.0, SVG Export Plug-In . SVG Version: 6.00 Build 0)  -->
<!DOCTYPE svg PUBLIC "-//W3C//DTD SVG 1.1//EN" "http://www.w3.org/Graphics/SVG/1.1/DTD/svg11.dtd">
<svg version="1.1" id="Layer_1" xmlns="http://www.w3.org/2000/svg" xmlns:xlink="http://www.w3.org/1999/xlink" x="0px" y="0px"
	 width="500px" height="500px" viewBox="0 0 500 500" enable-background="new 0 0 500 500" xml:space="preserve">
<path fill="#FFFFFF" d="M339.553,186.7l25.147,29.554c2.902,3.323,5.445,6.054,6.484,7.604c7.522,7.478,11.732,17.581,11.714,28.113
	c-0.697,12.412-8.795,20.867-16.299,29.93l-17.59,20.671l-9.171,10.711c-0.34,0.358-0.555,0.823-0.609,1.29
	c-0.07,0.502,0,1.003,0.216,1.434c0.215,0.447,0.537,0.822,0.968,1.074c0.429,0.25,0.93,0.394,1.433,0.357h91.743
	c14.024,0,31.687,11.786,30.647,29.662c-0.018,8.133-3.313,15.924-9.153,21.674c-5.839,5.749-13.72,8.991-21.977,9.009H289.417
	c-9.457,0-34.883,1.021-42.002-20.651c-1.514-4.551-1.719-9.387-0.591-14.043c2.06-6.842,5.338-13.309,9.654-19.059
	c7.236-10.711,15.064-21.422,22.783-31.793c9.924-13.596,20.151-26.778,30.2-40.643c0.358-0.447,0.537-1.002,0.537-1.576
	s-0.179-1.128-0.537-1.585l-36.504-42.836c-0.251-0.304-0.557-0.555-0.896-0.734c-0.357-0.17-0.751-0.259-1.146-0.259
	c-0.394,0-0.788,0.089-1.146,0.259c-0.358,0.179-0.645,0.43-0.896,0.734c-9.779,13.013-52.588,70.626-61.715,82.286
	c-9.125,11.68-31.614,12.324-44.054,0l-57.102-56.475c-0.367-0.358-0.824-0.609-1.335-0.708c-0.511-0.098-1.03-0.044-1.513,0.152
	c-0.475,0.188-0.878,0.52-1.164,0.949c-0.287,0.421-0.448,0.914-0.439,1.433v108.635c0.134,7.703-2.185,15.262-6.627,21.602
	c-4.442,6.341-10.792,11.177-18.154,13.793c-4.702,1.612-9.726,2.077-14.651,1.397c-4.936-0.682-9.628-2.544-13.685-5.374
	c-4.066-2.83-7.38-6.592-9.664-10.962c-2.292-4.354-3.492-9.171-3.502-14.079V152.918c0.323-7.039,2.902-13.792,7.345-19.309
	c4.45-5.517,10.55-9.52,17.428-11.428c5.902-1.541,12.118-1.531,18.02,0.054c5.893,1.577,11.257,4.666,15.556,8.947l87.794,86.63
	c0.26,0.26,0.582,0.466,0.932,0.591c0.349,0.125,0.726,0.179,1.102,0.152c0.367-0.036,0.734-0.143,1.056-0.331
	c0.323-0.179,0.609-0.43,0.824-0.734l62.369-85.081c2.874-3.448,6.492-6.243,10.576-8.177c4.103-1.926,8.563-2.956,13.112-3.009
	h162.208c4.442,0.009,8.831,0.949,12.879,2.758c4.03,1.818,7.648,4.46,10.551,7.747c2.937,3.296,5.104,7.174,6.376,11.356
	c1.289,4.191,1.647,8.606,1.074,12.941c-1.146,7.522-5.032,14.383-10.907,19.3c-5.895,4.926-13.381,7.576-21.101,7.469h-90.83
	c-0.467,0.009-0.914,0.144-1.29,0.376c-0.395,0.242-0.717,0.573-0.932,0.977c-0.215,0.402-0.305,0.851-0.287,1.298
	C339.159,185.894,339.302,186.324,339.553,186.7z"/>
</svg>
