<?xml version="1.0" encoding="utf-8"?>
<!-- Generator: Adobe Illustrator 16.0.0, SVG Export Plug-In . SVG Version: 6.00 Build 0)  -->
<!DOCTYPE svg PUBLIC "-//W3C//DTD SVG 1.1//EN" "http://www.w3.org/Graphics/SVG/1.1/DTD/svg11.dtd">
<svg version="1.1" id="Layer_1" xmlns="http://www.w3.org/2000/svg" xmlns:xlink="http://www.w3.org/1999/xlink" x="0px" y="0px"
	 width="500px" height="500px" viewBox="0 0 500 500" enable-background="new 0 0 500 500" xml:space="preserve">
<path fill="#E42575" d="M82.017,140.449c0,20.58-16.69,37.27-37.27,37.27c-20.58,0-37.27-16.69-37.27-37.27s16.69-37.27,37.27-37.27
	C65.327,103.179,82.017,119.869,82.017,140.449z"/>
<path fill="#E42575" d="M82.017,356.29c0,20.579-16.69,37.27-37.27,37.27c-20.58,0-37.27-16.69-37.27-37.27
	s16.69-37.271,37.27-37.271C65.327,319.02,82.017,335.711,82.017,356.29z"/>
<rect x="7.478" y="138.18" fill="#E42575" width="74.216" height="221.027"/>
<path fill="#E42575" d="M212.087,256.036c0,20.569-16.69,37.26-37.27,37.26c-20.58,0-37.27-16.69-37.27-37.26
	c0-20.58,16.69-37.27,37.27-37.27C195.396,218.766,212.087,235.457,212.087,256.036z"/>
<path fill="#E42575" d="M400.492,249.99c0,20.579-16.69,37.27-37.27,37.27c-20.58,0-37.271-16.69-37.271-37.27
	c0-20.58,16.69-37.271,37.271-37.271C383.802,212.72,400.492,229.41,400.492,249.99z"/>
<path fill="#E42575" d="M492.522,138.504c0,20.579-16.69,37.27-37.27,37.27c-20.58,0-37.271-16.69-37.271-37.27
	c0-20.58,16.69-37.27,37.271-37.27C475.832,101.234,492.522,117.925,492.522,138.504z"/>
<path fill="#E42575" d="M492.522,361.05c0,20.579-16.69,37.27-37.27,37.27c-20.58,0-37.271-16.69-37.271-37.27
	s16.69-37.271,37.271-37.271C475.832,323.779,492.522,340.471,492.522,361.05z"/>
<path fill="#E42575" d="M319.238,361.495c0,20.58-16.69,37.271-37.271,37.271c-20.579,0-37.27-16.69-37.27-37.271
	c0-20.579,16.69-37.27,37.27-37.27C302.548,324.226,319.238,340.916,319.238,361.495z"/>
<path fill="#E42575" d="M319.238,138.504c0,20.579-16.69,37.27-37.271,37.27c-20.579,0-37.27-16.69-37.27-37.27
	c0-20.58,16.69-37.27,37.27-37.27C302.548,101.234,319.238,117.925,319.238,138.504z"/>
<polygon fill="#E42575" points="57.711,105.124 174.817,218.766 256.375,113.226 281.968,101.234 455.253,101.234 458.604,175.126 
	350.685,173.83 396.704,234.109 392.491,271.055 347.768,326.15 457.633,324.205 458.28,384.485 456.66,398.097 269.339,396.477 
	252.162,342.354 317.952,248.045 275.496,197.164 200.633,282.723 149.427,283.371 74.887,216.285 "/>
</svg>
